G04 #@! TF.GenerationSoftware,KiCad,Pcbnew,(6.0.0)*
G04 #@! TF.CreationDate,2022-11-07T22:53:33+10:30*
G04 #@! TF.ProjectId,MicroTVbGone_r2,4d696372-6f54-4566-9247-6f6e655f7232,rev?*
G04 #@! TF.SameCoordinates,Original*
G04 #@! TF.FileFunction,Paste,Top*
G04 #@! TF.FilePolarity,Positive*
%FSLAX46Y46*%
G04 Gerber Fmt 4.6, Leading zero omitted, Abs format (unit mm)*
G04 Created by KiCad (PCBNEW (6.0.0)) date 2022-11-07 22:53:33*
%MOMM*%
%LPD*%
G01*
G04 APERTURE LIST*
G04 Aperture macros list*
%AMRotRect*
0 Rectangle, with rotation*
0 The origin of the aperture is its center*
0 $1 length*
0 $2 width*
0 $3 Rotation angle, in degrees counterclockwise*
0 Add horizontal line*
21,1,$1,$2,0,0,$3*%
G04 Aperture macros list end*
%ADD10R,1.000000X1.400000*%
%ADD11R,1.249681X1.699259*%
%ADD12R,1.400000X1.100000*%
%ADD13R,1.500000X1.300000*%
%ADD14RotRect,1.699259X1.249681X135.000000*%
%ADD15RotRect,1.000000X1.400000X45.000000*%
%ADD16RotRect,1.000000X1.400000X315.000000*%
%ADD17R,1.549400X0.533400*%
%ADD18RotRect,1.699259X1.249681X45.000000*%
%ADD19R,1.200000X1.200000*%
%ADD20R,1.524000X0.762000*%
G04 APERTURE END LIST*
D10*
G04 #@! TO.C,Q2*
X147551100Y-97975600D03*
X149451100Y-97975600D03*
X148501100Y-95775600D03*
G04 #@! TD*
D11*
G04 #@! TO.C,U$2*
X146850100Y-94081600D03*
X150152100Y-94081600D03*
G04 #@! TD*
D12*
G04 #@! TO.C,R1*
X153835100Y-106003600D03*
X153835100Y-104003600D03*
G04 #@! TD*
D13*
G04 #@! TO.C,C2*
X143167100Y-104153600D03*
X143167100Y-105853600D03*
G04 #@! TD*
D14*
G04 #@! TO.C,U$3*
X139713667Y-98551033D03*
X142048533Y-96216167D03*
G04 #@! TD*
D12*
G04 #@! TO.C,R5*
X155867100Y-104003600D03*
X155867100Y-106003600D03*
G04 #@! TD*
D13*
G04 #@! TO.C,C1*
X141135100Y-104153600D03*
X141135100Y-105853600D03*
G04 #@! TD*
D10*
G04 #@! TO.C,T1*
X147551100Y-101785600D03*
X148501100Y-99585600D03*
X149451100Y-101785600D03*
G04 #@! TD*
D15*
G04 #@! TO.C,Q1*
X143273166Y-101119169D03*
X144616669Y-99775666D03*
X142389283Y-98891783D03*
G04 #@! TD*
D16*
G04 #@! TO.C,Q4*
X152385531Y-99775666D03*
X153729034Y-101119169D03*
X154612917Y-98891783D03*
G04 #@! TD*
D17*
G04 #@! TO.C,U1*
X144792700Y-111226600D03*
X144792700Y-112496600D03*
X144792700Y-113766600D03*
X144792700Y-115036600D03*
X152209500Y-115036600D03*
X152209500Y-113766600D03*
X152209500Y-112496600D03*
X152209500Y-111226600D03*
G04 #@! TD*
D18*
G04 #@! TO.C,U$4*
X154953667Y-96216167D03*
X157288533Y-98551033D03*
G04 #@! TD*
D19*
G04 #@! TO.C,LED1*
X149551100Y-108966000D03*
X147451100Y-108966000D03*
G04 #@! TD*
D20*
G04 #@! TO.C,S2*
X145707100Y-103098600D03*
X151295100Y-103098600D03*
X145707100Y-106908600D03*
X151295100Y-106908600D03*
G04 #@! TD*
M02*
