G04 #@! TF.GenerationSoftware,KiCad,Pcbnew,(6.0.0)*
G04 #@! TF.CreationDate,2022-11-07T22:53:33+10:30*
G04 #@! TF.ProjectId,MicroTVbGone_r2,4d696372-6f54-4566-9247-6f6e655f7232,rev?*
G04 #@! TF.SameCoordinates,Original*
G04 #@! TF.FileFunction,Legend,Bot*
G04 #@! TF.FilePolarity,Positive*
%FSLAX46Y46*%
G04 Gerber Fmt 4.6, Leading zero omitted, Abs format (unit mm)*
G04 Created by KiCad (PCBNEW (6.0.0)) date 2022-11-07 22:53:33*
%MOMM*%
%LPD*%
G01*
G04 APERTURE LIST*
%ADD10C,0.065024*%
%ADD11C,0.127000*%
G04 APERTURE END LIST*
D10*
X143629483Y-94849603D02*
X143100725Y-94320846D01*
X142974831Y-94446740D01*
X142924473Y-94547456D01*
X142924473Y-94648172D01*
X142949652Y-94723709D01*
X143025189Y-94849603D01*
X143100725Y-94925140D01*
X143226620Y-95000677D01*
X143302157Y-95025856D01*
X143402873Y-95025856D01*
X143503588Y-94975498D01*
X143629483Y-94849603D01*
X142874115Y-95554613D02*
X142949652Y-95529434D01*
X143050368Y-95428719D01*
X143075547Y-95353182D01*
X143050368Y-95277645D01*
X142848936Y-95076214D01*
X142773399Y-95051035D01*
X142697863Y-95076214D01*
X142597147Y-95176929D01*
X142571968Y-95252466D01*
X142597147Y-95328003D01*
X142647505Y-95378361D01*
X142949652Y-95176929D01*
X142647505Y-95781224D02*
X142622326Y-95856760D01*
X142521610Y-95957476D01*
X142446073Y-95982655D01*
X142370537Y-95957476D01*
X142345358Y-95932297D01*
X142320179Y-95856760D01*
X142345358Y-95781224D01*
X142420894Y-95705687D01*
X142446073Y-95630150D01*
X142420894Y-95554613D01*
X142395716Y-95529434D01*
X142320179Y-95504255D01*
X142244642Y-95529434D01*
X142169105Y-95604971D01*
X142143926Y-95680508D01*
X142219463Y-96259623D02*
X141866958Y-95907118D01*
X141690706Y-95730866D02*
X141741063Y-95730866D01*
X141741063Y-95781224D01*
X141690706Y-95781224D01*
X141690706Y-95730866D01*
X141741063Y-95781224D01*
X141388558Y-96385518D02*
X141816600Y-96813560D01*
X141892137Y-96838738D01*
X141942495Y-96838738D01*
X142018032Y-96813560D01*
X142093568Y-96738023D01*
X142118747Y-96662486D01*
X141715884Y-96712844D02*
X141791421Y-96687665D01*
X141892137Y-96586949D01*
X141917316Y-96511412D01*
X141917316Y-96461055D01*
X141892137Y-96385518D01*
X141741063Y-96234444D01*
X141665527Y-96209265D01*
X141615169Y-96209265D01*
X141539632Y-96234444D01*
X141438916Y-96335160D01*
X141413737Y-96410697D01*
X141136769Y-96637307D02*
X141489274Y-96989812D01*
X141187127Y-96687665D02*
X141136769Y-96687665D01*
X141061232Y-96712844D01*
X140985696Y-96788381D01*
X140960517Y-96863917D01*
X140985696Y-96939454D01*
X141262664Y-97216422D01*
X140784264Y-97644464D02*
X140859801Y-97619285D01*
X140960517Y-97518570D01*
X140985696Y-97443033D01*
X140960517Y-97367496D01*
X140759085Y-97166065D01*
X140683548Y-97140886D01*
X140608012Y-97166065D01*
X140507296Y-97266780D01*
X140482117Y-97342317D01*
X140507296Y-97417854D01*
X140557654Y-97468212D01*
X140859801Y-97266780D01*
X140331043Y-98148043D02*
X139802286Y-97619285D01*
X140305865Y-98122864D02*
X140381401Y-98097685D01*
X140482117Y-97996969D01*
X140507296Y-97921432D01*
X140507296Y-97871075D01*
X140482117Y-97795538D01*
X140331043Y-97644464D01*
X140255507Y-97619285D01*
X140205149Y-97619285D01*
X140129612Y-97644464D01*
X140028896Y-97745180D01*
X140003717Y-97820717D01*
X139676391Y-98802695D02*
X139147634Y-98273937D01*
X139349065Y-98475369D02*
X139273528Y-98500548D01*
X139172813Y-98601263D01*
X139147634Y-98676800D01*
X139147634Y-98727158D01*
X139172813Y-98802695D01*
X139323886Y-98953768D01*
X139399423Y-98978947D01*
X139449781Y-98978947D01*
X139525318Y-98953768D01*
X139626033Y-98853053D01*
X139651212Y-98777516D01*
X138895845Y-98878232D02*
X139122455Y-99356631D01*
X138644055Y-99130021D02*
X139122455Y-99356631D01*
X139298707Y-99432168D01*
X139349065Y-99432168D01*
X139424602Y-99406989D01*
X145286508Y-94895177D02*
X144757750Y-94366419D01*
X144984361Y-95197324D01*
X144455603Y-94668566D01*
X144732571Y-95449113D02*
X144380066Y-95096608D01*
X144203814Y-94920355D02*
X144254172Y-94920355D01*
X144254172Y-94970713D01*
X144203814Y-94970713D01*
X144203814Y-94920355D01*
X144254172Y-94970713D01*
X144228993Y-95902334D02*
X144304529Y-95877155D01*
X144405245Y-95776439D01*
X144430424Y-95700902D01*
X144430424Y-95650544D01*
X144405245Y-95575008D01*
X144254172Y-95423934D01*
X144178635Y-95398755D01*
X144128277Y-95398755D01*
X144052740Y-95423934D01*
X143952024Y-95524650D01*
X143926846Y-95600186D01*
X144027561Y-96154123D02*
X143498804Y-95625365D01*
X143800951Y-96380733D02*
X143523983Y-96103765D01*
X143498804Y-96028228D01*
X143523983Y-95952691D01*
X143599519Y-95877155D01*
X143675056Y-95851976D01*
X143725414Y-95851976D01*
X143473625Y-96708059D02*
X143498804Y-96632523D01*
X143498804Y-96582165D01*
X143473625Y-96506628D01*
X143322551Y-96355554D01*
X143247015Y-96330375D01*
X143196657Y-96330375D01*
X143121120Y-96355554D01*
X143045583Y-96431091D01*
X143020404Y-96506628D01*
X143020404Y-96556986D01*
X143045583Y-96632523D01*
X143196657Y-96783596D01*
X143272193Y-96808775D01*
X143322551Y-96808775D01*
X143398088Y-96783596D01*
X143473625Y-96708059D01*
X142995225Y-97186459D02*
X143020404Y-97110922D01*
X142995225Y-97035385D01*
X142542005Y-96582165D01*
X142567183Y-97614501D02*
X142290215Y-97337532D01*
X142265036Y-97261996D01*
X142290215Y-97186459D01*
X142390931Y-97085743D01*
X142466468Y-97060564D01*
X142542005Y-97589322D02*
X142617541Y-97564143D01*
X142743436Y-97438248D01*
X142768615Y-97362711D01*
X142743436Y-97287175D01*
X142693078Y-97236817D01*
X142617541Y-97211638D01*
X142542005Y-97236817D01*
X142416110Y-97362711D01*
X142340573Y-97387890D01*
X142315394Y-97815932D02*
X142290215Y-97891469D01*
X142189500Y-97992185D01*
X142113963Y-98017364D01*
X142038426Y-97992185D01*
X142013247Y-97967006D01*
X141988068Y-97891469D01*
X142013247Y-97815932D01*
X142088784Y-97740395D01*
X142113963Y-97664859D01*
X142088784Y-97589322D01*
X142063605Y-97564143D01*
X141988068Y-97538964D01*
X141912531Y-97564143D01*
X141836995Y-97639680D01*
X141811816Y-97715216D01*
X140804659Y-98319511D02*
X141182342Y-98697195D01*
X141283058Y-98747552D01*
X141383774Y-98747552D01*
X141484490Y-98697195D01*
X141534847Y-98646837D01*
X140502511Y-98974163D02*
X140855016Y-99326668D01*
X140729122Y-98747552D02*
X141006090Y-99024521D01*
X141031269Y-99100057D01*
X141006090Y-99175594D01*
X140930553Y-99251131D01*
X140855016Y-99276310D01*
X140804659Y-99276310D01*
X140250722Y-99225952D02*
X140603227Y-99578457D01*
X140301080Y-99276310D02*
X140250722Y-99276310D01*
X140175185Y-99301489D01*
X140099649Y-99377026D01*
X140074470Y-99452562D01*
X140099649Y-99528099D01*
X140376617Y-99805067D01*
X140124827Y-100056857D02*
X139596070Y-99528099D01*
X139873038Y-99905783D02*
X139923396Y-100258288D01*
X139570891Y-99905783D02*
X139973754Y-99905783D01*
X139470175Y-100661151D02*
X139545712Y-100635972D01*
X139646428Y-100535256D01*
X139671607Y-100459720D01*
X139646428Y-100384183D01*
X139444996Y-100182751D01*
X139369460Y-100157572D01*
X139293923Y-100182751D01*
X139193207Y-100283467D01*
X139168028Y-100359004D01*
X139193207Y-100434541D01*
X139243565Y-100484898D01*
X139545712Y-100283467D01*
X139243565Y-100938119D02*
X138891060Y-100585614D01*
X138991776Y-100686330D02*
X138916239Y-100661151D01*
X138865881Y-100661151D01*
X138790344Y-100686330D01*
X138739986Y-100736688D01*
D11*
G04 #@! TO.C,U$1*
X157391100Y-105003600D02*
G75*
G03*
X157391100Y-105003600I-8890000J0D01*
G01*
G04 #@! TD*
M02*
