G04 #@! TF.GenerationSoftware,KiCad,Pcbnew,(6.0.0)*
G04 #@! TF.CreationDate,2022-11-07T22:53:33+10:30*
G04 #@! TF.ProjectId,MicroTVbGone_r2,4d696372-6f54-4566-9247-6f6e655f7232,rev?*
G04 #@! TF.SameCoordinates,Original*
G04 #@! TF.FileFunction,Copper,L1,Top*
G04 #@! TF.FilePolarity,Positive*
%FSLAX46Y46*%
G04 Gerber Fmt 4.6, Leading zero omitted, Abs format (unit mm)*
G04 Created by KiCad (PCBNEW (6.0.0)) date 2022-11-07 22:53:33*
%MOMM*%
%LPD*%
G01*
G04 APERTURE LIST*
G04 Aperture macros list*
%AMRotRect*
0 Rectangle, with rotation*
0 The origin of the aperture is its center*
0 $1 length*
0 $2 width*
0 $3 Rotation angle, in degrees counterclockwise*
0 Add horizontal line*
21,1,$1,$2,0,0,$3*%
G04 Aperture macros list end*
G04 #@! TA.AperFunction,SMDPad,CuDef*
%ADD10R,1.000000X1.400000*%
G04 #@! TD*
G04 #@! TA.AperFunction,SMDPad,CuDef*
%ADD11R,1.249681X1.699259*%
G04 #@! TD*
G04 #@! TA.AperFunction,SMDPad,CuDef*
%ADD12R,1.400000X1.100000*%
G04 #@! TD*
G04 #@! TA.AperFunction,SMDPad,CuDef*
%ADD13R,1.500000X1.300000*%
G04 #@! TD*
G04 #@! TA.AperFunction,SMDPad,CuDef*
%ADD14RotRect,1.699259X1.249681X135.000000*%
G04 #@! TD*
G04 #@! TA.AperFunction,SMDPad,CuDef*
%ADD15RotRect,1.000000X1.400000X45.000000*%
G04 #@! TD*
G04 #@! TA.AperFunction,SMDPad,CuDef*
%ADD16RotRect,1.000000X1.400000X315.000000*%
G04 #@! TD*
G04 #@! TA.AperFunction,SMDPad,CuDef*
%ADD17R,1.549400X0.533400*%
G04 #@! TD*
G04 #@! TA.AperFunction,SMDPad,CuDef*
%ADD18RotRect,1.699259X1.249681X45.000000*%
G04 #@! TD*
G04 #@! TA.AperFunction,SMDPad,CuDef*
%ADD19R,1.200000X1.200000*%
G04 #@! TD*
G04 #@! TA.AperFunction,SMDPad,CuDef*
%ADD20R,1.524000X0.762000*%
G04 #@! TD*
G04 #@! TA.AperFunction,ViaPad*
%ADD21C,0.705600*%
G04 #@! TD*
G04 #@! TA.AperFunction,Conductor*
%ADD22C,0.203200*%
G04 #@! TD*
G04 APERTURE END LIST*
D10*
G04 #@! TO.P,Q2,1*
G04 #@! TO.N,N$10*
X147551100Y-97975600D03*
G04 #@! TO.P,Q2,2*
G04 #@! TO.N,GND*
X149451100Y-97975600D03*
G04 #@! TO.P,Q2,3*
G04 #@! TO.N,N$4*
X148501100Y-95775600D03*
G04 #@! TD*
D11*
G04 #@! TO.P,U$2,GND*
G04 #@! TO.N,N$4*
X146850100Y-94081600D03*
G04 #@! TO.P,U$2,VCC*
G04 #@! TO.N,VCC*
X150152100Y-94081600D03*
G04 #@! TD*
D12*
G04 #@! TO.P,R1,1*
G04 #@! TO.N,N$12*
X153835100Y-106003600D03*
G04 #@! TO.P,R1,2*
G04 #@! TO.N,MOSI*
X153835100Y-104003600D03*
G04 #@! TD*
D13*
G04 #@! TO.P,C2,1*
G04 #@! TO.N,VCC*
X143167100Y-104153600D03*
G04 #@! TO.P,C2,2*
G04 #@! TO.N,GND*
X143167100Y-105853600D03*
G04 #@! TD*
D14*
G04 #@! TO.P,U$3,GND*
G04 #@! TO.N,N$11*
X139713667Y-98551033D03*
G04 #@! TO.P,U$3,VCC*
G04 #@! TO.N,VCC*
X142048533Y-96216167D03*
G04 #@! TD*
D12*
G04 #@! TO.P,R5,1*
G04 #@! TO.N,SCK*
X155867100Y-104003600D03*
G04 #@! TO.P,R5,2*
G04 #@! TO.N,N$1*
X155867100Y-106003600D03*
G04 #@! TD*
D13*
G04 #@! TO.P,C1,1*
G04 #@! TO.N,VCC*
X141135100Y-104153600D03*
G04 #@! TO.P,C1,2*
G04 #@! TO.N,GND*
X141135100Y-105853600D03*
G04 #@! TD*
D10*
G04 #@! TO.P,T1,B*
G04 #@! TO.N,N$12*
X147551100Y-101785600D03*
G04 #@! TO.P,T1,C*
G04 #@! TO.N,N$10*
X148501100Y-99585600D03*
G04 #@! TO.P,T1,E*
G04 #@! TO.N,VCC*
X149451100Y-101785600D03*
G04 #@! TD*
D15*
G04 #@! TO.P,Q1,1*
G04 #@! TO.N,N$10*
X143273166Y-101119169D03*
G04 #@! TO.P,Q1,2*
G04 #@! TO.N,GND*
X144616669Y-99775666D03*
G04 #@! TO.P,Q1,3*
G04 #@! TO.N,N$11*
X142389283Y-98891783D03*
G04 #@! TD*
D16*
G04 #@! TO.P,Q4,1*
G04 #@! TO.N,N$10*
X152385531Y-99775666D03*
G04 #@! TO.P,Q4,2*
G04 #@! TO.N,GND*
X153729034Y-101119169D03*
G04 #@! TO.P,Q4,3*
G04 #@! TO.N,N$6*
X154612917Y-98891783D03*
G04 #@! TD*
D17*
G04 #@! TO.P,U1,1*
G04 #@! TO.N,RST*
X144792700Y-111226600D03*
G04 #@! TO.P,U1,2*
G04 #@! TO.N,N/C*
X144792700Y-112496600D03*
G04 #@! TO.P,U1,3*
X144792700Y-113766600D03*
G04 #@! TO.P,U1,4*
G04 #@! TO.N,GND*
X144792700Y-115036600D03*
G04 #@! TO.P,U1,5*
G04 #@! TO.N,MOSI*
X152209500Y-115036600D03*
G04 #@! TO.P,U1,6*
G04 #@! TO.N,N/C*
X152209500Y-113766600D03*
G04 #@! TO.P,U1,7*
G04 #@! TO.N,SCK*
X152209500Y-112496600D03*
G04 #@! TO.P,U1,8*
G04 #@! TO.N,VCC*
X152209500Y-111226600D03*
G04 #@! TD*
D18*
G04 #@! TO.P,U$4,GND*
G04 #@! TO.N,N$6*
X154953667Y-96216167D03*
G04 #@! TO.P,U$4,VCC*
G04 #@! TO.N,VCC*
X157288533Y-98551033D03*
G04 #@! TD*
D19*
G04 #@! TO.P,LED1,A*
G04 #@! TO.N,N$1*
X149551100Y-108966000D03*
G04 #@! TO.P,LED1,C*
G04 #@! TO.N,VCC*
X147451100Y-108966000D03*
G04 #@! TD*
D20*
G04 #@! TO.P,S2,1*
G04 #@! TO.N,GND*
X145707100Y-103098600D03*
G04 #@! TO.P,S2,2*
G04 #@! TO.N,N/C*
X151295100Y-103098600D03*
G04 #@! TO.P,S2,3*
G04 #@! TO.N,RST*
X145707100Y-106908600D03*
G04 #@! TO.P,S2,4*
G04 #@! TO.N,N/C*
X151295100Y-106908600D03*
G04 #@! TD*
D21*
G04 #@! TO.N,VCC*
X158661100Y-100685600D03*
X139357100Y-104241600D03*
G04 #@! TO.N,GND*
X152565100Y-96113600D03*
X143167100Y-108305600D03*
X146469100Y-100177600D03*
G04 #@! TD*
D22*
G04 #@! TO.N,VCC*
X139357100Y-104241600D02*
X139445100Y-104153600D01*
X149451100Y-103037600D02*
X148247100Y-104241600D01*
X140448331Y-96216169D02*
X138239500Y-98425000D01*
X143167100Y-104153600D02*
X141135100Y-104153600D01*
X147451100Y-105017457D02*
X148226956Y-104241600D01*
X148226956Y-104241600D02*
X143255100Y-104241600D01*
X138239500Y-103124000D02*
X139357100Y-104241600D01*
X157899100Y-97459800D02*
X157899100Y-98399600D01*
X139445100Y-104153600D02*
X141135100Y-104153600D01*
X148226956Y-104241600D02*
X148247100Y-104241600D01*
X147451100Y-108966000D02*
X147451100Y-105017457D01*
X150152100Y-96494600D02*
X149771100Y-96875600D01*
X153835100Y-94843600D02*
X155282900Y-94843600D01*
X143255100Y-104241600D02*
X143167100Y-104153600D01*
X157899100Y-98399600D02*
X157747665Y-98551035D01*
X157288531Y-99313032D02*
X158661100Y-100685600D01*
X153073100Y-94081600D02*
X150152100Y-94081600D01*
X149451100Y-101785600D02*
X149451100Y-103037600D01*
X157747665Y-98551035D02*
X157288531Y-98551035D01*
X149771100Y-96875600D02*
X142707962Y-96875600D01*
X149711700Y-111226600D02*
X147451100Y-108966000D01*
X155282900Y-94843600D02*
X157899100Y-97459800D01*
X153073100Y-94081600D02*
X153835100Y-94843600D01*
X157288531Y-98551035D02*
X157288531Y-99313032D01*
X142048531Y-96216169D02*
X140448331Y-96216169D01*
X150152100Y-94081600D02*
X149771100Y-94081600D01*
X138239500Y-98425000D02*
X138239500Y-103124000D01*
X142707962Y-96875600D02*
X142048531Y-96216169D01*
X152209500Y-111226600D02*
X149711700Y-111226600D01*
X150152100Y-94081600D02*
X150152100Y-96494600D01*
G04 #@! TO.N,GND*
X145453100Y-102844600D02*
X145707100Y-103098600D01*
X152565100Y-97551600D02*
X152565100Y-96113600D01*
X153729031Y-101119172D02*
X153835100Y-101013104D01*
X152141100Y-97975600D02*
X152565100Y-97551600D01*
X153835100Y-99669600D02*
X152141100Y-97975600D01*
X143167100Y-108254341D02*
X143167100Y-108305600D01*
X144616668Y-100357169D02*
X145453100Y-101193600D01*
X143167100Y-114147600D02*
X143167100Y-108254341D01*
X144056100Y-115036600D02*
X143167100Y-114147600D01*
X144792700Y-115036600D02*
X144056100Y-115036600D01*
X143167100Y-108254341D02*
X143167100Y-105853600D01*
X152141100Y-97975600D02*
X149451100Y-97975600D01*
X144616668Y-99775669D02*
X144616668Y-100357169D01*
X145453100Y-101193600D02*
X146469100Y-100177600D01*
X145453100Y-101193600D02*
X145453100Y-102844600D01*
X153835100Y-101013104D02*
X153835100Y-99669600D01*
X143167100Y-105853600D02*
X141135100Y-105853600D01*
G04 #@! TO.N,SCK*
X156629100Y-104495600D02*
X156359100Y-104495600D01*
X154724100Y-112496600D02*
X157137100Y-110083600D01*
X157137100Y-105003600D02*
X156629100Y-104495600D01*
X152209500Y-112496600D02*
X154724100Y-112496600D01*
X156359100Y-104495600D02*
X155867100Y-104003600D01*
X157137100Y-110083600D02*
X157137100Y-105003600D01*
G04 #@! TO.N,RST*
X144792700Y-111226600D02*
X144792700Y-107823000D01*
X144792700Y-107823000D02*
X145707100Y-106908600D01*
G04 #@! TO.N,N$6*
X154612915Y-96556919D02*
X154953665Y-96216169D01*
X154612915Y-98891785D02*
X154612915Y-96556919D01*
G04 #@! TO.N,N$4*
X148501100Y-95732600D02*
X146850100Y-94081600D01*
X148501100Y-95775600D02*
X148501100Y-95732600D01*
G04 #@! TO.N,N$12*
X147551100Y-101635600D02*
X148501100Y-100685600D01*
X153565100Y-106273600D02*
X153835100Y-106003600D01*
X150533100Y-100685600D02*
X152565100Y-102717600D01*
X148501100Y-100685600D02*
X150533100Y-100685600D01*
X147551100Y-101785600D02*
X147551100Y-101635600D01*
X152565100Y-102717600D02*
X152565100Y-106019600D01*
X152565100Y-106019600D02*
X152819100Y-106273600D01*
X152819100Y-106273600D02*
X153565100Y-106273600D01*
G04 #@! TO.N,N$11*
X140054415Y-98891785D02*
X139713665Y-98551035D01*
X142389281Y-98891785D02*
X140054415Y-98891785D01*
G04 #@! TO.N,N$10*
X143167100Y-101013107D02*
X143167100Y-99669600D01*
X147551100Y-98635600D02*
X148501100Y-99585600D01*
X148501100Y-99585600D02*
X152195459Y-99585600D01*
X152195459Y-99585600D02*
X152385528Y-99775669D01*
X144861100Y-97975600D02*
X147551100Y-97975600D01*
X143167100Y-99669600D02*
X144861100Y-97975600D01*
X143273165Y-101119172D02*
X143167100Y-101013107D01*
X147551100Y-97975600D02*
X147551100Y-98635600D01*
G04 #@! TO.N,N$1*
X155105100Y-109067600D02*
X149652700Y-109067600D01*
X155867100Y-108305600D02*
X155105100Y-109067600D01*
X155867100Y-106003600D02*
X155867100Y-108305600D01*
X149652700Y-109067600D02*
X149551100Y-108966000D01*
G04 #@! TO.N,MOSI*
X157899100Y-111861600D02*
X157899100Y-102717600D01*
X152209500Y-115036600D02*
X154724100Y-115036600D01*
X157391100Y-102209600D02*
X154343100Y-102209600D01*
X154724100Y-115036600D02*
X157899100Y-111861600D01*
X157899100Y-102717600D02*
X157391100Y-102209600D01*
X153835100Y-102717600D02*
X153835100Y-104003600D01*
X154343100Y-102209600D02*
X153835100Y-102717600D01*
G04 #@! TD*
G04 #@! TA.AperFunction,Conductor*
G04 #@! TO.N,GND*
G36*
X148591156Y-92300796D02*
G01*
X148932891Y-92312729D01*
X149042954Y-92316573D01*
X149044343Y-92316641D01*
X149552266Y-92348597D01*
X149553652Y-92348704D01*
X149727712Y-92364544D01*
X150003824Y-92389672D01*
X150006564Y-92389999D01*
X150151774Y-92411442D01*
X150453801Y-92456042D01*
X150455174Y-92456265D01*
X150956313Y-92544629D01*
X150957679Y-92544889D01*
X151400517Y-92635790D01*
X151403224Y-92636425D01*
X151571307Y-92680834D01*
X151840307Y-92751907D01*
X151841567Y-92752259D01*
X152271063Y-92878666D01*
X152329805Y-92895955D01*
X152331133Y-92896366D01*
X152761089Y-93036067D01*
X152763680Y-93036990D01*
X152982171Y-93121737D01*
X153185169Y-93200475D01*
X153186458Y-93200996D01*
X153230147Y-93219361D01*
X153655599Y-93398204D01*
X153656829Y-93398742D01*
X154068554Y-93585509D01*
X154071017Y-93586710D01*
X154253471Y-93682095D01*
X154471626Y-93796144D01*
X154472849Y-93796805D01*
X154917118Y-94045098D01*
X154918323Y-94045794D01*
X155306599Y-94277253D01*
X155308947Y-94278743D01*
X155683721Y-94531532D01*
X155684863Y-94532326D01*
X156098647Y-94828565D01*
X156099753Y-94829381D01*
X156250547Y-94943839D01*
X156459839Y-95102701D01*
X156462006Y-95104443D01*
X156806262Y-95397428D01*
X156807309Y-95398344D01*
X157185506Y-95738874D01*
X157186526Y-95739819D01*
X157513887Y-96051560D01*
X157515847Y-96053534D01*
X157728219Y-96279687D01*
X157825310Y-96383079D01*
X157826207Y-96384061D01*
X158164135Y-96764679D01*
X158164990Y-96765669D01*
X158403336Y-97049719D01*
X158455598Y-97112002D01*
X158457325Y-97114182D01*
X158728094Y-97476127D01*
X158728912Y-97477252D01*
X159022260Y-97893099D01*
X159023045Y-97894246D01*
X159273225Y-98270797D01*
X159274699Y-98273154D01*
X159498807Y-98655136D01*
X159503458Y-98663064D01*
X159504137Y-98664260D01*
X159639994Y-98911383D01*
X159749305Y-99110219D01*
X159749958Y-99111447D01*
X159956583Y-99513496D01*
X159957785Y-99516003D01*
X160141686Y-99929051D01*
X160142206Y-99930267D01*
X160202149Y-100075699D01*
X160336129Y-100400761D01*
X160336641Y-100402054D01*
X160401001Y-100571481D01*
X160496541Y-100822991D01*
X160497169Y-100824645D01*
X160498082Y-100827264D01*
X160616616Y-101200932D01*
X160634776Y-101258179D01*
X160635176Y-101259503D01*
X160771316Y-101734278D01*
X160775451Y-101748700D01*
X160775815Y-101750042D01*
X160888230Y-102187872D01*
X160888847Y-102190584D01*
X160976659Y-102634067D01*
X160976910Y-102635435D01*
X161061776Y-103137195D01*
X161061988Y-103138569D01*
X161124901Y-103586215D01*
X161125211Y-103588979D01*
X161163038Y-104039441D01*
X161163134Y-104040821D01*
X161190480Y-104529922D01*
X161191542Y-104548923D01*
X161191600Y-104550292D01*
X161197589Y-104764686D01*
X161204233Y-105002571D01*
X161204247Y-105004656D01*
X161202994Y-105094431D01*
X161199461Y-105347444D01*
X161199324Y-105357254D01*
X161199252Y-105359316D01*
X161182400Y-105660738D01*
X161173997Y-105811027D01*
X161173900Y-105812414D01*
X161131317Y-106319518D01*
X161131182Y-106320902D01*
X161080791Y-106770155D01*
X161080404Y-106772909D01*
X161005015Y-107218630D01*
X161004764Y-107219998D01*
X160905912Y-107719241D01*
X160905622Y-107720601D01*
X160805480Y-108161380D01*
X160804791Y-108164067D01*
X160750504Y-108353388D01*
X160680181Y-108598631D01*
X160679779Y-108599962D01*
X160525900Y-109085049D01*
X160525461Y-109086368D01*
X160376792Y-109513289D01*
X160375816Y-109515857D01*
X160211748Y-109913917D01*
X160203566Y-109933768D01*
X160203029Y-109935024D01*
X160177319Y-109992769D01*
X159995998Y-110400022D01*
X159995414Y-110401284D01*
X159909164Y-110581302D01*
X159800091Y-110808955D01*
X159798840Y-110811389D01*
X159591412Y-111188701D01*
X159581048Y-111207553D01*
X159580374Y-111208740D01*
X159322826Y-111647720D01*
X159322177Y-111648793D01*
X159082568Y-112032246D01*
X159081032Y-112034558D01*
X158988194Y-112166164D01*
X158820430Y-112403985D01*
X158819614Y-112405107D01*
X158557520Y-112755456D01*
X158514804Y-112812555D01*
X158513956Y-112813657D01*
X158233152Y-113167943D01*
X158231364Y-113170073D01*
X157931244Y-113508107D01*
X157930307Y-113509134D01*
X157581895Y-113880155D01*
X157580989Y-113881094D01*
X157412507Y-114050756D01*
X157262430Y-114201884D01*
X157260416Y-114203802D01*
X156924458Y-114506299D01*
X156923411Y-114507215D01*
X156535881Y-114837030D01*
X156534810Y-114837916D01*
X156182502Y-115121180D01*
X156180290Y-115122859D01*
X156123942Y-115163200D01*
X155812737Y-115386000D01*
X155811595Y-115386794D01*
X155389688Y-115671374D01*
X155388524Y-115672136D01*
X155075548Y-115870757D01*
X155006823Y-115914371D01*
X155004454Y-115915783D01*
X154609793Y-116136352D01*
X154608692Y-116136947D01*
X154244651Y-116327263D01*
X154157627Y-116372758D01*
X154156386Y-116373385D01*
X153750082Y-116571552D01*
X153747549Y-116572701D01*
X153330816Y-116747879D01*
X153329527Y-116748400D01*
X153073946Y-116847534D01*
X152855013Y-116932452D01*
X152853749Y-116932921D01*
X152714141Y-116982634D01*
X152427912Y-117084555D01*
X152425269Y-117085415D01*
X152145671Y-117167705D01*
X151991605Y-117213049D01*
X151990275Y-117213420D01*
X151504579Y-117341747D01*
X151498228Y-117343425D01*
X151496882Y-117343760D01*
X151432206Y-117358930D01*
X151056777Y-117446986D01*
X151054053Y-117447545D01*
X150608889Y-117526039D01*
X150607516Y-117526262D01*
X150205889Y-117585570D01*
X150104047Y-117600608D01*
X150102679Y-117600791D01*
X149653799Y-117654316D01*
X149651030Y-117654568D01*
X149199881Y-117682952D01*
X149198492Y-117683020D01*
X148849080Y-117695222D01*
X148689853Y-117700782D01*
X148688496Y-117700811D01*
X148477478Y-117702284D01*
X148236461Y-117703966D01*
X148233680Y-117703908D01*
X147782156Y-117681825D01*
X147780768Y-117681737D01*
X147273349Y-117642693D01*
X147271965Y-117642567D01*
X146822407Y-117595317D01*
X146819650Y-117594949D01*
X146373437Y-117522678D01*
X146372068Y-117522437D01*
X146242071Y-117497639D01*
X145872091Y-117427062D01*
X145870853Y-117426807D01*
X145429262Y-117329718D01*
X145426600Y-117329053D01*
X144991181Y-117207482D01*
X144989912Y-117207109D01*
X144768052Y-117138432D01*
X144503691Y-117056598D01*
X144502368Y-117056168D01*
X144074452Y-116910494D01*
X144071846Y-116909525D01*
X143652715Y-116740185D01*
X143651433Y-116739646D01*
X143185076Y-116535900D01*
X143183809Y-116535325D01*
X142774772Y-116342847D01*
X142772315Y-116341605D01*
X142552501Y-116222752D01*
X142374666Y-116126597D01*
X142373452Y-116125919D01*
X141932731Y-115871469D01*
X141931536Y-115870757D01*
X141546498Y-115633880D01*
X141544171Y-115632357D01*
X141172968Y-115374364D01*
X141171838Y-115373555D01*
X141107051Y-115325790D01*
X143764800Y-115325790D01*
X143765277Y-115330636D01*
X143778534Y-115397282D01*
X143782217Y-115406173D01*
X143832726Y-115481766D01*
X143839534Y-115488574D01*
X143915127Y-115539083D01*
X143924018Y-115542766D01*
X143990664Y-115556023D01*
X143995510Y-115556500D01*
X144656194Y-115556500D01*
X144663199Y-115553599D01*
X144666100Y-115546594D01*
X144919300Y-115546594D01*
X144922201Y-115553599D01*
X144929206Y-115556500D01*
X145589890Y-115556500D01*
X145594736Y-115556023D01*
X145661382Y-115542766D01*
X145670273Y-115539083D01*
X145745866Y-115488574D01*
X145752674Y-115481766D01*
X145803183Y-115406173D01*
X145806866Y-115397282D01*
X145820123Y-115330636D01*
X145820600Y-115325790D01*
X145820600Y-115173106D01*
X145817699Y-115166101D01*
X145810694Y-115163200D01*
X144929206Y-115163200D01*
X144922201Y-115166101D01*
X144919300Y-115173106D01*
X144919300Y-115546594D01*
X144666100Y-115546594D01*
X144666100Y-115173106D01*
X144663199Y-115166101D01*
X144656194Y-115163200D01*
X143774706Y-115163200D01*
X143767701Y-115166101D01*
X143764800Y-115173106D01*
X143764800Y-115325790D01*
X141107051Y-115325790D01*
X141071383Y-115299493D01*
X140762203Y-115071546D01*
X140761135Y-115070735D01*
X140542724Y-114900094D01*
X143764800Y-114900094D01*
X143767701Y-114907099D01*
X143774706Y-114910000D01*
X144656194Y-114910000D01*
X144663199Y-114907099D01*
X144666100Y-114900094D01*
X144919300Y-114900094D01*
X144922201Y-114907099D01*
X144929206Y-114910000D01*
X145810694Y-114910000D01*
X145817699Y-114907099D01*
X145820600Y-114900094D01*
X145820600Y-114754843D01*
X151281900Y-114754843D01*
X151281901Y-115318356D01*
X151282378Y-115320753D01*
X151282378Y-115320756D01*
X151285517Y-115336535D01*
X151290772Y-115362958D01*
X151293497Y-115367036D01*
X151293498Y-115367038D01*
X151321841Y-115409456D01*
X151324566Y-115413534D01*
X151375142Y-115447328D01*
X151379951Y-115448285D01*
X151379952Y-115448285D01*
X151417344Y-115455723D01*
X151417346Y-115455723D01*
X151419743Y-115456200D01*
X152209338Y-115456200D01*
X152999256Y-115456199D01*
X153001653Y-115455722D01*
X153001656Y-115455722D01*
X153017435Y-115452583D01*
X153043858Y-115447328D01*
X153094434Y-115413534D01*
X153099353Y-115406173D01*
X153125503Y-115367036D01*
X153128228Y-115362958D01*
X153134548Y-115331184D01*
X153155723Y-115299493D01*
X153183391Y-115291100D01*
X154694129Y-115291100D01*
X154703845Y-115292057D01*
X154724100Y-115296086D01*
X154823401Y-115276334D01*
X154827481Y-115273608D01*
X154886312Y-115234299D01*
X154886318Y-115234295D01*
X154886334Y-115234284D01*
X154886337Y-115234281D01*
X154907584Y-115220084D01*
X154910309Y-115216006D01*
X154910311Y-115216004D01*
X154919056Y-115202916D01*
X154925249Y-115195369D01*
X158057869Y-112062749D01*
X158065416Y-112056556D01*
X158078504Y-112047811D01*
X158078506Y-112047809D01*
X158082584Y-112045084D01*
X158096781Y-112023837D01*
X158096784Y-112023834D01*
X158138834Y-111960901D01*
X158158586Y-111861600D01*
X158154557Y-111841344D01*
X158153600Y-111831629D01*
X158153600Y-102747567D01*
X158154557Y-102737852D01*
X158157628Y-102722412D01*
X158157628Y-102722411D01*
X158158585Y-102717600D01*
X158153600Y-102692537D01*
X158153600Y-102692533D01*
X158147676Y-102662752D01*
X158139792Y-102623113D01*
X158139791Y-102623111D01*
X158138834Y-102618299D01*
X158110770Y-102576298D01*
X158085309Y-102538194D01*
X158082584Y-102534116D01*
X158078506Y-102531391D01*
X158078504Y-102531389D01*
X158065413Y-102522642D01*
X158057866Y-102516449D01*
X157592249Y-102050831D01*
X157586056Y-102043284D01*
X157577311Y-102030196D01*
X157577309Y-102030194D01*
X157574584Y-102026116D01*
X157553337Y-102011919D01*
X157553334Y-102011916D01*
X157490401Y-101969866D01*
X157391100Y-101950114D01*
X157386289Y-101951071D01*
X157370844Y-101954143D01*
X157361129Y-101955100D01*
X154373067Y-101955100D01*
X154363352Y-101954143D01*
X154347912Y-101951072D01*
X154347911Y-101951072D01*
X154343100Y-101950115D01*
X154338289Y-101951072D01*
X154338287Y-101951072D01*
X154318040Y-101955099D01*
X154318035Y-101955100D01*
X154318033Y-101955100D01*
X154296007Y-101959481D01*
X154248613Y-101968908D01*
X154248611Y-101968909D01*
X154243799Y-101969866D01*
X154180868Y-102011916D01*
X154159616Y-102026116D01*
X154156891Y-102030194D01*
X154156889Y-102030196D01*
X154148142Y-102043287D01*
X154141949Y-102050834D01*
X153676331Y-102516451D01*
X153668784Y-102522644D01*
X153655696Y-102531389D01*
X153655694Y-102531391D01*
X153651616Y-102534116D01*
X153637419Y-102555363D01*
X153637416Y-102555366D01*
X153637405Y-102555382D01*
X153637401Y-102555388D01*
X153625251Y-102573572D01*
X153595366Y-102618299D01*
X153575614Y-102717600D01*
X153576571Y-102722411D01*
X153579643Y-102737856D01*
X153580600Y-102747571D01*
X153580600Y-103250901D01*
X153566014Y-103286115D01*
X153530800Y-103300701D01*
X153120044Y-103300701D01*
X153117647Y-103301178D01*
X153117644Y-103301178D01*
X153101865Y-103304317D01*
X153075442Y-103309572D01*
X153071364Y-103312297D01*
X153071362Y-103312298D01*
X153028944Y-103340641D01*
X153024866Y-103343366D01*
X153022141Y-103347444D01*
X153019965Y-103350701D01*
X152991072Y-103393942D01*
X152990115Y-103398751D01*
X152990115Y-103398752D01*
X152987308Y-103412866D01*
X152982200Y-103438543D01*
X152982201Y-104568656D01*
X152991072Y-104613258D01*
X152993797Y-104617336D01*
X152993798Y-104617338D01*
X153003635Y-104632060D01*
X153024866Y-104663834D01*
X153075442Y-104697628D01*
X153080251Y-104698585D01*
X153080252Y-104698585D01*
X153117644Y-104706023D01*
X153117646Y-104706023D01*
X153120043Y-104706500D01*
X153834953Y-104706500D01*
X154550156Y-104706499D01*
X154552553Y-104706022D01*
X154552556Y-104706022D01*
X154569101Y-104702731D01*
X154594758Y-104697628D01*
X154645334Y-104663834D01*
X154679128Y-104613258D01*
X154688000Y-104568657D01*
X154687999Y-103438544D01*
X154679128Y-103393942D01*
X154657984Y-103362297D01*
X154648059Y-103347444D01*
X154645334Y-103343366D01*
X154594758Y-103309572D01*
X154589949Y-103308615D01*
X154589948Y-103308615D01*
X154552556Y-103301177D01*
X154552554Y-103301177D01*
X154550157Y-103300700D01*
X154139400Y-103300700D01*
X154104186Y-103286114D01*
X154089600Y-103250900D01*
X154089600Y-102843646D01*
X154104186Y-102808432D01*
X154433931Y-102478686D01*
X154469145Y-102464100D01*
X157265054Y-102464100D01*
X157300268Y-102478686D01*
X157630014Y-102808431D01*
X157644600Y-102843645D01*
X157644600Y-111735554D01*
X157630014Y-111770768D01*
X154633268Y-114767514D01*
X154598054Y-114782100D01*
X153183390Y-114782100D01*
X153148176Y-114767514D01*
X153134547Y-114742014D01*
X153129186Y-114715056D01*
X153129185Y-114715054D01*
X153128228Y-114710242D01*
X153099353Y-114667027D01*
X153097159Y-114663744D01*
X153094434Y-114659666D01*
X153043858Y-114625872D01*
X153039049Y-114624915D01*
X153039048Y-114624915D01*
X153001656Y-114617477D01*
X153001654Y-114617477D01*
X152999257Y-114617000D01*
X152209662Y-114617000D01*
X151419744Y-114617001D01*
X151417347Y-114617478D01*
X151417344Y-114617478D01*
X151401565Y-114620617D01*
X151375142Y-114625872D01*
X151324566Y-114659666D01*
X151321841Y-114663744D01*
X151313707Y-114675918D01*
X151290772Y-114710242D01*
X151289815Y-114715051D01*
X151289815Y-114715052D01*
X151283379Y-114747410D01*
X151281900Y-114754843D01*
X145820600Y-114754843D01*
X145820600Y-114747410D01*
X145820123Y-114742564D01*
X145806866Y-114675918D01*
X145803183Y-114667027D01*
X145752674Y-114591434D01*
X145745866Y-114584626D01*
X145670273Y-114534117D01*
X145661382Y-114530434D01*
X145594736Y-114517177D01*
X145589890Y-114516700D01*
X144929206Y-114516700D01*
X144922201Y-114519601D01*
X144919300Y-114526606D01*
X144919300Y-114900094D01*
X144666100Y-114900094D01*
X144666100Y-114526606D01*
X144663199Y-114519601D01*
X144656194Y-114516700D01*
X143995510Y-114516700D01*
X143990664Y-114517177D01*
X143924018Y-114530434D01*
X143915127Y-114534117D01*
X143839534Y-114584626D01*
X143832726Y-114591434D01*
X143782217Y-114667027D01*
X143778534Y-114675918D01*
X143765277Y-114742564D01*
X143764800Y-114747410D01*
X143764800Y-114900094D01*
X140542724Y-114900094D01*
X140404895Y-114792410D01*
X140402752Y-114790637D01*
X140062630Y-114492883D01*
X140061597Y-114491953D01*
X139688172Y-114146158D01*
X139687201Y-114145234D01*
X139519744Y-113981248D01*
X139364201Y-113828928D01*
X139362269Y-113826927D01*
X139162769Y-113608447D01*
X139057437Y-113493094D01*
X139056522Y-113492063D01*
X139052401Y-113487288D01*
X139050291Y-113484843D01*
X143865100Y-113484843D01*
X143865101Y-114048356D01*
X143873972Y-114092958D01*
X143907766Y-114143534D01*
X143958342Y-114177328D01*
X143963151Y-114178285D01*
X143963152Y-114178285D01*
X144000544Y-114185723D01*
X144000546Y-114185723D01*
X144002943Y-114186200D01*
X144792538Y-114186200D01*
X145582456Y-114186199D01*
X145584853Y-114185722D01*
X145584856Y-114185722D01*
X145600635Y-114182583D01*
X145627058Y-114177328D01*
X145677634Y-114143534D01*
X145711428Y-114092958D01*
X145720300Y-114048357D01*
X145720299Y-113484844D01*
X145720299Y-113484843D01*
X151281900Y-113484843D01*
X151281901Y-114048356D01*
X151290772Y-114092958D01*
X151324566Y-114143534D01*
X151375142Y-114177328D01*
X151379951Y-114178285D01*
X151379952Y-114178285D01*
X151417344Y-114185723D01*
X151417346Y-114185723D01*
X151419743Y-114186200D01*
X152209338Y-114186200D01*
X152999256Y-114186199D01*
X153001653Y-114185722D01*
X153001656Y-114185722D01*
X153017435Y-114182583D01*
X153043858Y-114177328D01*
X153094434Y-114143534D01*
X153128228Y-114092958D01*
X153137100Y-114048357D01*
X153137099Y-113484844D01*
X153128228Y-113440242D01*
X153094434Y-113389666D01*
X153043858Y-113355872D01*
X153039049Y-113354915D01*
X153039048Y-113354915D01*
X153001656Y-113347477D01*
X153001654Y-113347477D01*
X152999257Y-113347000D01*
X152209662Y-113347000D01*
X151419744Y-113347001D01*
X151417347Y-113347478D01*
X151417344Y-113347478D01*
X151401565Y-113350617D01*
X151375142Y-113355872D01*
X151324566Y-113389666D01*
X151290772Y-113440242D01*
X151281900Y-113484843D01*
X145720299Y-113484843D01*
X145711428Y-113440242D01*
X145677634Y-113389666D01*
X145627058Y-113355872D01*
X145622249Y-113354915D01*
X145622248Y-113354915D01*
X145584856Y-113347477D01*
X145584854Y-113347477D01*
X145582457Y-113347000D01*
X144792862Y-113347000D01*
X144002944Y-113347001D01*
X144000547Y-113347478D01*
X144000544Y-113347478D01*
X143984765Y-113350617D01*
X143958342Y-113355872D01*
X143907766Y-113389666D01*
X143873972Y-113440242D01*
X143865100Y-113484843D01*
X139050291Y-113484843D01*
X138724005Y-113106838D01*
X138723111Y-113105773D01*
X138568109Y-112915722D01*
X138437394Y-112755450D01*
X138435702Y-112753253D01*
X138169980Y-112387515D01*
X138169178Y-112386378D01*
X138051725Y-112214843D01*
X143865100Y-112214843D01*
X143865101Y-112778356D01*
X143865578Y-112780753D01*
X143865578Y-112780756D01*
X143868717Y-112796535D01*
X143873972Y-112822958D01*
X143907766Y-112873534D01*
X143958342Y-112907328D01*
X143963151Y-112908285D01*
X143963152Y-112908285D01*
X144000544Y-112915723D01*
X144000546Y-112915723D01*
X144002943Y-112916200D01*
X144792538Y-112916200D01*
X145582456Y-112916199D01*
X145584853Y-112915722D01*
X145584856Y-112915722D01*
X145600635Y-112912583D01*
X145627058Y-112907328D01*
X145677634Y-112873534D01*
X145711428Y-112822958D01*
X145713278Y-112813657D01*
X145719823Y-112780756D01*
X145719823Y-112780754D01*
X145720300Y-112778357D01*
X145720299Y-112214844D01*
X145720299Y-112214843D01*
X151281900Y-112214843D01*
X151281901Y-112778356D01*
X151282378Y-112780753D01*
X151282378Y-112780756D01*
X151285517Y-112796535D01*
X151290772Y-112822958D01*
X151324566Y-112873534D01*
X151375142Y-112907328D01*
X151379951Y-112908285D01*
X151379952Y-112908285D01*
X151417344Y-112915723D01*
X151417346Y-112915723D01*
X151419743Y-112916200D01*
X152209338Y-112916200D01*
X152999256Y-112916199D01*
X153001653Y-112915722D01*
X153001656Y-112915722D01*
X153017435Y-112912583D01*
X153043858Y-112907328D01*
X153094434Y-112873534D01*
X153128228Y-112822958D01*
X153134548Y-112791184D01*
X153155723Y-112759493D01*
X153183391Y-112751100D01*
X154694129Y-112751100D01*
X154703845Y-112752057D01*
X154724100Y-112756086D01*
X154823401Y-112736334D01*
X154886334Y-112694284D01*
X154886337Y-112694281D01*
X154907584Y-112680084D01*
X154910309Y-112676006D01*
X154910311Y-112676004D01*
X154919056Y-112662916D01*
X154925249Y-112655369D01*
X157295866Y-110284751D01*
X157303413Y-110278558D01*
X157316504Y-110269811D01*
X157316506Y-110269809D01*
X157320584Y-110267084D01*
X157376834Y-110182901D01*
X157379313Y-110170441D01*
X157391600Y-110108667D01*
X157391600Y-110108663D01*
X157395628Y-110088411D01*
X157396585Y-110083600D01*
X157392557Y-110063348D01*
X157391600Y-110053633D01*
X157391600Y-105033567D01*
X157392557Y-105023852D01*
X157395628Y-105008412D01*
X157395628Y-105008411D01*
X157396585Y-105003600D01*
X157391600Y-104978537D01*
X157391600Y-104978533D01*
X157377792Y-104909113D01*
X157377791Y-104909111D01*
X157376834Y-104904299D01*
X157320584Y-104820116D01*
X157316506Y-104817391D01*
X157316504Y-104817389D01*
X157303413Y-104808642D01*
X157295866Y-104802449D01*
X156830249Y-104336831D01*
X156824056Y-104329284D01*
X156815311Y-104316196D01*
X156815309Y-104316194D01*
X156812584Y-104312116D01*
X156791337Y-104297919D01*
X156791334Y-104297916D01*
X156742133Y-104265041D01*
X156720957Y-104233350D01*
X156720000Y-104223634D01*
X156719999Y-103440990D01*
X156719999Y-103438544D01*
X156711128Y-103393942D01*
X156689984Y-103362297D01*
X156680059Y-103347444D01*
X156677334Y-103343366D01*
X156626758Y-103309572D01*
X156621949Y-103308615D01*
X156621948Y-103308615D01*
X156584556Y-103301177D01*
X156584554Y-103301177D01*
X156582157Y-103300700D01*
X155867247Y-103300700D01*
X155152044Y-103300701D01*
X155149647Y-103301178D01*
X155149644Y-103301178D01*
X155133865Y-103304317D01*
X155107442Y-103309572D01*
X155103364Y-103312297D01*
X155103362Y-103312298D01*
X155060944Y-103340641D01*
X155056866Y-103343366D01*
X155054141Y-103347444D01*
X155051965Y-103350701D01*
X155023072Y-103393942D01*
X155022115Y-103398751D01*
X155022115Y-103398752D01*
X155019308Y-103412866D01*
X155014200Y-103438543D01*
X155014201Y-104568656D01*
X155023072Y-104613258D01*
X155025797Y-104617336D01*
X155025798Y-104617338D01*
X155035635Y-104632060D01*
X155056866Y-104663834D01*
X155107442Y-104697628D01*
X155112251Y-104698585D01*
X155112252Y-104698585D01*
X155149644Y-104706023D01*
X155149646Y-104706023D01*
X155152043Y-104706500D01*
X155300351Y-104706500D01*
X156201538Y-104706499D01*
X156229205Y-104714892D01*
X156259799Y-104735334D01*
X156326402Y-104748582D01*
X156359100Y-104755086D01*
X156363911Y-104754129D01*
X156379356Y-104751057D01*
X156389071Y-104750100D01*
X156503054Y-104750100D01*
X156538268Y-104764686D01*
X156868014Y-105094431D01*
X156882600Y-105129645D01*
X156882600Y-109957555D01*
X156868014Y-109992769D01*
X154633268Y-112227514D01*
X154598054Y-112242100D01*
X153183390Y-112242100D01*
X153148176Y-112227514D01*
X153134547Y-112202014D01*
X153129186Y-112175056D01*
X153129185Y-112175054D01*
X153128228Y-112170242D01*
X153094434Y-112119666D01*
X153043858Y-112085872D01*
X153039049Y-112084915D01*
X153039048Y-112084915D01*
X153001656Y-112077477D01*
X153001654Y-112077477D01*
X152999257Y-112077000D01*
X152209662Y-112077000D01*
X151419744Y-112077001D01*
X151417347Y-112077478D01*
X151417344Y-112077478D01*
X151401565Y-112080617D01*
X151375142Y-112085872D01*
X151324566Y-112119666D01*
X151290772Y-112170242D01*
X151289815Y-112175051D01*
X151289815Y-112175052D01*
X151285321Y-112197647D01*
X151281900Y-112214843D01*
X145720299Y-112214843D01*
X145711428Y-112170242D01*
X145677634Y-112119666D01*
X145627058Y-112085872D01*
X145622249Y-112084915D01*
X145622248Y-112084915D01*
X145584856Y-112077477D01*
X145584854Y-112077477D01*
X145582457Y-112077000D01*
X144792862Y-112077000D01*
X144002944Y-112077001D01*
X144000547Y-112077478D01*
X144000544Y-112077478D01*
X143984765Y-112080617D01*
X143958342Y-112085872D01*
X143907766Y-112119666D01*
X143873972Y-112170242D01*
X143873015Y-112175051D01*
X143873015Y-112175052D01*
X143868521Y-112197647D01*
X143865100Y-112214843D01*
X138051725Y-112214843D01*
X137881674Y-111966490D01*
X137880905Y-111965332D01*
X137636025Y-111585353D01*
X137634584Y-111582974D01*
X137411298Y-111189919D01*
X137410628Y-111188701D01*
X137280966Y-110944843D01*
X143865100Y-110944843D01*
X143865101Y-111508356D01*
X143873972Y-111552958D01*
X143876697Y-111557036D01*
X143876698Y-111557038D01*
X143895618Y-111585353D01*
X143907766Y-111603534D01*
X143958342Y-111637328D01*
X143963151Y-111638285D01*
X143963152Y-111638285D01*
X144000544Y-111645723D01*
X144000546Y-111645723D01*
X144002943Y-111646200D01*
X144792538Y-111646200D01*
X145582456Y-111646199D01*
X145584853Y-111645722D01*
X145584856Y-111645722D01*
X145600635Y-111642583D01*
X145627058Y-111637328D01*
X145677634Y-111603534D01*
X145711428Y-111552958D01*
X145720300Y-111508357D01*
X145720299Y-110944844D01*
X145717748Y-110932015D01*
X145712385Y-110905056D01*
X145711428Y-110900242D01*
X145677634Y-110849666D01*
X145627058Y-110815872D01*
X145622249Y-110814915D01*
X145622248Y-110814915D01*
X145584856Y-110807477D01*
X145584854Y-110807477D01*
X145582457Y-110807000D01*
X145097000Y-110807000D01*
X145061786Y-110792414D01*
X145047200Y-110757200D01*
X145047200Y-107949046D01*
X145061786Y-107913832D01*
X145518532Y-107457086D01*
X145553746Y-107442500D01*
X146383340Y-107442499D01*
X146484156Y-107442499D01*
X146486553Y-107442022D01*
X146486556Y-107442022D01*
X146502335Y-107438883D01*
X146528758Y-107433628D01*
X146579334Y-107399834D01*
X146613128Y-107349258D01*
X146622000Y-107304657D01*
X146621999Y-106512544D01*
X146613128Y-106467942D01*
X146579334Y-106417366D01*
X146528758Y-106383572D01*
X146523949Y-106382615D01*
X146523948Y-106382615D01*
X146486556Y-106375177D01*
X146486554Y-106375177D01*
X146484157Y-106374700D01*
X145707259Y-106374700D01*
X144930044Y-106374701D01*
X144927647Y-106375178D01*
X144927644Y-106375178D01*
X144911865Y-106378317D01*
X144885442Y-106383572D01*
X144834866Y-106417366D01*
X144801072Y-106467942D01*
X144792200Y-106512543D01*
X144792201Y-107304656D01*
X144801072Y-107349258D01*
X144803797Y-107353336D01*
X144803798Y-107353338D01*
X144820604Y-107378489D01*
X144828040Y-107415872D01*
X144814411Y-107441371D01*
X144633931Y-107621851D01*
X144626384Y-107628044D01*
X144613296Y-107636789D01*
X144613294Y-107636791D01*
X144609216Y-107639516D01*
X144595019Y-107660763D01*
X144595016Y-107660766D01*
X144552966Y-107723699D01*
X144533214Y-107823000D01*
X144534171Y-107827811D01*
X144537243Y-107843256D01*
X144538200Y-107852971D01*
X144538200Y-110757201D01*
X144523614Y-110792415D01*
X144488400Y-110807001D01*
X144002944Y-110807001D01*
X144000547Y-110807478D01*
X144000544Y-110807478D01*
X143986915Y-110810189D01*
X143958342Y-110815872D01*
X143907766Y-110849666D01*
X143873972Y-110900242D01*
X143865100Y-110944843D01*
X137280966Y-110944843D01*
X137232528Y-110853744D01*
X137171694Y-110739332D01*
X137171066Y-110738109D01*
X136970077Y-110333218D01*
X136968910Y-110330693D01*
X136790830Y-109915202D01*
X136790300Y-109913917D01*
X136602954Y-109440735D01*
X136602460Y-109439435D01*
X136447851Y-109014650D01*
X136446973Y-109012011D01*
X136316317Y-108579258D01*
X136315934Y-108577921D01*
X136182502Y-108086810D01*
X136182156Y-108085463D01*
X136118659Y-107823000D01*
X136075856Y-107646073D01*
X136075281Y-107643365D01*
X136071969Y-107625319D01*
X135993669Y-107198696D01*
X135993452Y-107197415D01*
X135923116Y-106743066D01*
X135915587Y-106694433D01*
X135915394Y-106693056D01*
X135894301Y-106526090D01*
X140131900Y-106526090D01*
X140132377Y-106530936D01*
X140145634Y-106597582D01*
X140149317Y-106606473D01*
X140199826Y-106682066D01*
X140206634Y-106688874D01*
X140282227Y-106739383D01*
X140291118Y-106743066D01*
X140357764Y-106756323D01*
X140362610Y-106756800D01*
X140998594Y-106756800D01*
X141005599Y-106753899D01*
X141008500Y-106746894D01*
X141261700Y-106746894D01*
X141264601Y-106753899D01*
X141271606Y-106756800D01*
X141907590Y-106756800D01*
X141912436Y-106756323D01*
X141979082Y-106743066D01*
X141987973Y-106739383D01*
X142063566Y-106688874D01*
X142070374Y-106682066D01*
X142109693Y-106623221D01*
X142141385Y-106602045D01*
X142178767Y-106609481D01*
X142192507Y-106623221D01*
X142231826Y-106682066D01*
X142238634Y-106688874D01*
X142314227Y-106739383D01*
X142323118Y-106743066D01*
X142389764Y-106756323D01*
X142394610Y-106756800D01*
X143030594Y-106756800D01*
X143037599Y-106753899D01*
X143040500Y-106746894D01*
X143293700Y-106746894D01*
X143296601Y-106753899D01*
X143303606Y-106756800D01*
X143939590Y-106756800D01*
X143944436Y-106756323D01*
X144011082Y-106743066D01*
X144019973Y-106739383D01*
X144095566Y-106688874D01*
X144102374Y-106682066D01*
X144152883Y-106606473D01*
X144156566Y-106597582D01*
X144169823Y-106530936D01*
X144170300Y-106526090D01*
X144170300Y-105990106D01*
X144167399Y-105983101D01*
X144160394Y-105980200D01*
X143303606Y-105980200D01*
X143296601Y-105983101D01*
X143293700Y-105990106D01*
X143293700Y-106746894D01*
X143040500Y-106746894D01*
X143040500Y-105990106D01*
X143037599Y-105983101D01*
X143030594Y-105980200D01*
X142173806Y-105980200D01*
X142170158Y-105981711D01*
X142132042Y-105981711D01*
X142128394Y-105980200D01*
X141271606Y-105980200D01*
X141264601Y-105983101D01*
X141261700Y-105990106D01*
X141261700Y-106746894D01*
X141008500Y-106746894D01*
X141008500Y-105990106D01*
X141005599Y-105983101D01*
X140998594Y-105980200D01*
X140141806Y-105980200D01*
X140134801Y-105983101D01*
X140131900Y-105990106D01*
X140131900Y-106526090D01*
X135894301Y-106526090D01*
X135858741Y-106244602D01*
X135858469Y-106241834D01*
X135826933Y-105790850D01*
X135826856Y-105789461D01*
X135824175Y-105725489D01*
X135805545Y-105281001D01*
X135805508Y-105279684D01*
X135799195Y-104827610D01*
X135799234Y-104824843D01*
X135799262Y-104824194D01*
X135818164Y-104373188D01*
X135818240Y-104371823D01*
X135853743Y-103864117D01*
X135853860Y-103862731D01*
X135885176Y-103543338D01*
X135897970Y-103412855D01*
X135898317Y-103410107D01*
X135898696Y-103407660D01*
X135942609Y-103124000D01*
X137980014Y-103124000D01*
X137999766Y-103223301D01*
X138002492Y-103227380D01*
X138002492Y-103227381D01*
X138018208Y-103250901D01*
X138041816Y-103286234D01*
X138041819Y-103286237D01*
X138056016Y-103307484D01*
X138060094Y-103310209D01*
X138060096Y-103310211D01*
X138073184Y-103318956D01*
X138080731Y-103325149D01*
X138847849Y-104092267D01*
X138862435Y-104127481D01*
X138861842Y-104135139D01*
X138846238Y-104235358D01*
X138865020Y-104378991D01*
X138877747Y-104407916D01*
X138910924Y-104483315D01*
X138923360Y-104511579D01*
X138969282Y-104566210D01*
X139008831Y-104613258D01*
X139016569Y-104622464D01*
X139137152Y-104702731D01*
X139275417Y-104745928D01*
X139278961Y-104745993D01*
X139416701Y-104748517D01*
X139420248Y-104748582D01*
X139423674Y-104747648D01*
X139556582Y-104711414D01*
X139556584Y-104711413D01*
X139560003Y-104710481D01*
X139605926Y-104682284D01*
X139680429Y-104636539D01*
X139680431Y-104636537D01*
X139683446Y-104634686D01*
X139685823Y-104632060D01*
X139778275Y-104529922D01*
X139778277Y-104529919D01*
X139780655Y-104527292D01*
X139782201Y-104524101D01*
X139782203Y-104524098D01*
X139824795Y-104436187D01*
X139853275Y-104410856D01*
X139869612Y-104408100D01*
X140182401Y-104408100D01*
X140217615Y-104422686D01*
X140232201Y-104457900D01*
X140232201Y-104818656D01*
X140232678Y-104821053D01*
X140232678Y-104821056D01*
X140233984Y-104827623D01*
X140241072Y-104863258D01*
X140243797Y-104867336D01*
X140243798Y-104867338D01*
X140274407Y-104913147D01*
X140281843Y-104950530D01*
X140260668Y-104982222D01*
X140206632Y-105018328D01*
X140199826Y-105025134D01*
X140149317Y-105100727D01*
X140145634Y-105109618D01*
X140132377Y-105176264D01*
X140131900Y-105181110D01*
X140131900Y-105717094D01*
X140134801Y-105724099D01*
X140141806Y-105727000D01*
X142128394Y-105727000D01*
X142132042Y-105725489D01*
X142170158Y-105725489D01*
X142173806Y-105727000D01*
X144160394Y-105727000D01*
X144167399Y-105724099D01*
X144170300Y-105717094D01*
X144170300Y-105181110D01*
X144169823Y-105176264D01*
X144156566Y-105109618D01*
X144152883Y-105100727D01*
X144102374Y-105025134D01*
X144095568Y-105018328D01*
X144041532Y-104982222D01*
X144020357Y-104950530D01*
X144027793Y-104913147D01*
X144058403Y-104867336D01*
X144061128Y-104863258D01*
X144062722Y-104855245D01*
X144069523Y-104821056D01*
X144069523Y-104821054D01*
X144070000Y-104818657D01*
X144070000Y-104545900D01*
X144084586Y-104510686D01*
X144119800Y-104496100D01*
X147492311Y-104496100D01*
X147527525Y-104510686D01*
X147542111Y-104545900D01*
X147527525Y-104581114D01*
X147292331Y-104816308D01*
X147284784Y-104822501D01*
X147271696Y-104831246D01*
X147271694Y-104831248D01*
X147267616Y-104833973D01*
X147253419Y-104855220D01*
X147253416Y-104855223D01*
X147211366Y-104918156D01*
X147191614Y-105017457D01*
X147192571Y-105022268D01*
X147195643Y-105037713D01*
X147196600Y-105047428D01*
X147196600Y-108163301D01*
X147182014Y-108198515D01*
X147146800Y-108213101D01*
X146836044Y-108213101D01*
X146833647Y-108213578D01*
X146833644Y-108213578D01*
X146817865Y-108216717D01*
X146791442Y-108221972D01*
X146740866Y-108255766D01*
X146707072Y-108306342D01*
X146698200Y-108350943D01*
X146698201Y-109581056D01*
X146707072Y-109625658D01*
X146740866Y-109676234D01*
X146791442Y-109710028D01*
X146796251Y-109710985D01*
X146796252Y-109710985D01*
X146833644Y-109718423D01*
X146833646Y-109718423D01*
X146836043Y-109718900D01*
X146942863Y-109718900D01*
X147823453Y-109718899D01*
X147858667Y-109733485D01*
X149510551Y-111385369D01*
X149516744Y-111392916D01*
X149525489Y-111406004D01*
X149525491Y-111406006D01*
X149528216Y-111410084D01*
X149549463Y-111424281D01*
X149549466Y-111424284D01*
X149612399Y-111466334D01*
X149686633Y-111481100D01*
X149686634Y-111481100D01*
X149686640Y-111481101D01*
X149706887Y-111485128D01*
X149706889Y-111485128D01*
X149711700Y-111486085D01*
X149716511Y-111485128D01*
X149716512Y-111485128D01*
X149731952Y-111482057D01*
X149741667Y-111481100D01*
X151235610Y-111481100D01*
X151270824Y-111495686D01*
X151284453Y-111521186D01*
X151289814Y-111548144D01*
X151289815Y-111548146D01*
X151290772Y-111552958D01*
X151293497Y-111557036D01*
X151293498Y-111557038D01*
X151312418Y-111585353D01*
X151324566Y-111603534D01*
X151375142Y-111637328D01*
X151379951Y-111638285D01*
X151379952Y-111638285D01*
X151417344Y-111645723D01*
X151417346Y-111645723D01*
X151419743Y-111646200D01*
X152209338Y-111646200D01*
X152999256Y-111646199D01*
X153001653Y-111645722D01*
X153001656Y-111645722D01*
X153017435Y-111642583D01*
X153043858Y-111637328D01*
X153094434Y-111603534D01*
X153128228Y-111552958D01*
X153137100Y-111508357D01*
X153137099Y-110944844D01*
X153134548Y-110932015D01*
X153129185Y-110905056D01*
X153128228Y-110900242D01*
X153094434Y-110849666D01*
X153043858Y-110815872D01*
X153039049Y-110814915D01*
X153039048Y-110814915D01*
X153001656Y-110807477D01*
X153001654Y-110807477D01*
X152999257Y-110807000D01*
X152209662Y-110807000D01*
X151419744Y-110807001D01*
X151417347Y-110807478D01*
X151417344Y-110807478D01*
X151403715Y-110810189D01*
X151375142Y-110815872D01*
X151324566Y-110849666D01*
X151290772Y-110900242D01*
X151289815Y-110905052D01*
X151289815Y-110905053D01*
X151284452Y-110932015D01*
X151263277Y-110963707D01*
X151235609Y-110972100D01*
X149837746Y-110972100D01*
X149802532Y-110957514D01*
X148218586Y-109373568D01*
X148204000Y-109338354D01*
X148203999Y-108353390D01*
X148203999Y-108350944D01*
X148203999Y-108350943D01*
X148798200Y-108350943D01*
X148798201Y-109581056D01*
X148807072Y-109625658D01*
X148840866Y-109676234D01*
X148891442Y-109710028D01*
X148896251Y-109710985D01*
X148896252Y-109710985D01*
X148933644Y-109718423D01*
X148933646Y-109718423D01*
X148936043Y-109718900D01*
X149550974Y-109718900D01*
X150166156Y-109718899D01*
X150168553Y-109718422D01*
X150168556Y-109718422D01*
X150184335Y-109715283D01*
X150210758Y-109710028D01*
X150261334Y-109676234D01*
X150295128Y-109625658D01*
X150304000Y-109581057D01*
X150304000Y-109371900D01*
X150318586Y-109336686D01*
X150353800Y-109322100D01*
X155075129Y-109322100D01*
X155084845Y-109323057D01*
X155105100Y-109327086D01*
X155204401Y-109307334D01*
X155267334Y-109265284D01*
X155267337Y-109265281D01*
X155288584Y-109251084D01*
X155291309Y-109247006D01*
X155291311Y-109247004D01*
X155300056Y-109233916D01*
X155306249Y-109226369D01*
X156025866Y-108506751D01*
X156033413Y-108500558D01*
X156046504Y-108491811D01*
X156046506Y-108491809D01*
X156050584Y-108489084D01*
X156106834Y-108404901D01*
X156121600Y-108330667D01*
X156126586Y-108305600D01*
X156122557Y-108285344D01*
X156121600Y-108275629D01*
X156121600Y-106756299D01*
X156136186Y-106721085D01*
X156171400Y-106706499D01*
X156582156Y-106706499D01*
X156584553Y-106706022D01*
X156584556Y-106706022D01*
X156600335Y-106702883D01*
X156626758Y-106697628D01*
X156633601Y-106693056D01*
X156673256Y-106666559D01*
X156677334Y-106663834D01*
X156711128Y-106613258D01*
X156712478Y-106606473D01*
X156719523Y-106571056D01*
X156719523Y-106571054D01*
X156720000Y-106568657D01*
X156719999Y-105438544D01*
X156711128Y-105393942D01*
X156677334Y-105343366D01*
X156626758Y-105309572D01*
X156621949Y-105308615D01*
X156621948Y-105308615D01*
X156584556Y-105301177D01*
X156584554Y-105301177D01*
X156582157Y-105300700D01*
X155867247Y-105300700D01*
X155152044Y-105300701D01*
X155149647Y-105301178D01*
X155149644Y-105301178D01*
X155133865Y-105304317D01*
X155107442Y-105309572D01*
X155056866Y-105343366D01*
X155023072Y-105393942D01*
X155014200Y-105438543D01*
X155014201Y-106568656D01*
X155023072Y-106613258D01*
X155056866Y-106663834D01*
X155107442Y-106697628D01*
X155112251Y-106698585D01*
X155112252Y-106698585D01*
X155149644Y-106706023D01*
X155149646Y-106706023D01*
X155152043Y-106706500D01*
X155562800Y-106706500D01*
X155598014Y-106721086D01*
X155612600Y-106756300D01*
X155612600Y-108179555D01*
X155598014Y-108214769D01*
X155014268Y-108798514D01*
X154979054Y-108813100D01*
X150353799Y-108813100D01*
X150318585Y-108798514D01*
X150303999Y-108763300D01*
X150303999Y-108350944D01*
X150295128Y-108306342D01*
X150261334Y-108255766D01*
X150210758Y-108221972D01*
X150205949Y-108221015D01*
X150205948Y-108221015D01*
X150168556Y-108213577D01*
X150168554Y-108213577D01*
X150166157Y-108213100D01*
X149551226Y-108213100D01*
X148936044Y-108213101D01*
X148933647Y-108213578D01*
X148933644Y-108213578D01*
X148917865Y-108216717D01*
X148891442Y-108221972D01*
X148840866Y-108255766D01*
X148807072Y-108306342D01*
X148798200Y-108350943D01*
X148203999Y-108350943D01*
X148195128Y-108306342D01*
X148161334Y-108255766D01*
X148110758Y-108221972D01*
X148105949Y-108221015D01*
X148105948Y-108221015D01*
X148068556Y-108213577D01*
X148068554Y-108213577D01*
X148066157Y-108213100D01*
X147755400Y-108213100D01*
X147720186Y-108198514D01*
X147705600Y-108163300D01*
X147705600Y-106512543D01*
X150380200Y-106512543D01*
X150380201Y-107304656D01*
X150389072Y-107349258D01*
X150391797Y-107353336D01*
X150391798Y-107353338D01*
X150420141Y-107395756D01*
X150422866Y-107399834D01*
X150473442Y-107433628D01*
X150478251Y-107434585D01*
X150478252Y-107434585D01*
X150515644Y-107442023D01*
X150515646Y-107442023D01*
X150518043Y-107442500D01*
X151294941Y-107442500D01*
X152072156Y-107442499D01*
X152074553Y-107442022D01*
X152074556Y-107442022D01*
X152090335Y-107438883D01*
X152116758Y-107433628D01*
X152167334Y-107399834D01*
X152201128Y-107349258D01*
X152210000Y-107304657D01*
X152209999Y-106512544D01*
X152201128Y-106467942D01*
X152167334Y-106417366D01*
X152116758Y-106383572D01*
X152111949Y-106382615D01*
X152111948Y-106382615D01*
X152074556Y-106375177D01*
X152074554Y-106375177D01*
X152072157Y-106374700D01*
X151295259Y-106374700D01*
X150518044Y-106374701D01*
X150515647Y-106375178D01*
X150515644Y-106375178D01*
X150499865Y-106378317D01*
X150473442Y-106383572D01*
X150422866Y-106417366D01*
X150389072Y-106467942D01*
X150380200Y-106512543D01*
X147705600Y-106512543D01*
X147705600Y-105143503D01*
X147720186Y-105108289D01*
X148345158Y-104483315D01*
X148352705Y-104477122D01*
X148409312Y-104439299D01*
X148409318Y-104439295D01*
X148409334Y-104439284D01*
X148409337Y-104439281D01*
X148430584Y-104425084D01*
X148433309Y-104421006D01*
X148433311Y-104421004D01*
X148442056Y-104407916D01*
X148448249Y-104400369D01*
X149609869Y-103238749D01*
X149617416Y-103232556D01*
X149630504Y-103223811D01*
X149630506Y-103223809D01*
X149634584Y-103221084D01*
X149648781Y-103199837D01*
X149648784Y-103199834D01*
X149690834Y-103136901D01*
X149693400Y-103124000D01*
X149705600Y-103062667D01*
X149705600Y-103062663D01*
X149710585Y-103037600D01*
X149706557Y-103017348D01*
X149705600Y-103007633D01*
X149705600Y-102688299D01*
X149720186Y-102653085D01*
X149755400Y-102638499D01*
X149966156Y-102638499D01*
X149968553Y-102638022D01*
X149968556Y-102638022D01*
X149988439Y-102634067D01*
X150010758Y-102629628D01*
X150020509Y-102623113D01*
X150057256Y-102598559D01*
X150061334Y-102595834D01*
X150095128Y-102545258D01*
X150096533Y-102538194D01*
X150103523Y-102503056D01*
X150103523Y-102503054D01*
X150104000Y-102500657D01*
X150103999Y-101070544D01*
X150095128Y-101025942D01*
X150092402Y-101021862D01*
X150092401Y-101021860D01*
X150089532Y-101017566D01*
X150082097Y-100980183D01*
X150103274Y-100948492D01*
X150130940Y-100940100D01*
X150407054Y-100940100D01*
X150442268Y-100954686D01*
X151967268Y-102479686D01*
X151981854Y-102514900D01*
X151967268Y-102550114D01*
X151932054Y-102564700D01*
X150548635Y-102564701D01*
X150518044Y-102564701D01*
X150515647Y-102565178D01*
X150515644Y-102565178D01*
X150499865Y-102568317D01*
X150473442Y-102573572D01*
X150469363Y-102576298D01*
X150469362Y-102576298D01*
X150426944Y-102604641D01*
X150422866Y-102607366D01*
X150420141Y-102611444D01*
X150415561Y-102618299D01*
X150389072Y-102657942D01*
X150388115Y-102662751D01*
X150388115Y-102662752D01*
X150381679Y-102695110D01*
X150380200Y-102702543D01*
X150380201Y-103494656D01*
X150380678Y-103497053D01*
X150380678Y-103497056D01*
X150382643Y-103506936D01*
X150389072Y-103539258D01*
X150391797Y-103543336D01*
X150391798Y-103543338D01*
X150419103Y-103584202D01*
X150422866Y-103589834D01*
X150473442Y-103623628D01*
X150478251Y-103624585D01*
X150478252Y-103624585D01*
X150515644Y-103632023D01*
X150515646Y-103632023D01*
X150518043Y-103632500D01*
X151294941Y-103632500D01*
X152072156Y-103632499D01*
X152074553Y-103632022D01*
X152074556Y-103632022D01*
X152090335Y-103628883D01*
X152116758Y-103623628D01*
X152167334Y-103589834D01*
X152172253Y-103582473D01*
X152198403Y-103543336D01*
X152201128Y-103539258D01*
X152202086Y-103534444D01*
X152209523Y-103497056D01*
X152209523Y-103497054D01*
X152210000Y-103494657D01*
X152209999Y-102842645D01*
X152224585Y-102807431D01*
X152259799Y-102792845D01*
X152295013Y-102807431D01*
X152296014Y-102808432D01*
X152310600Y-102843646D01*
X152310600Y-105989629D01*
X152309643Y-105999344D01*
X152305614Y-106019600D01*
X152325366Y-106118901D01*
X152367416Y-106181834D01*
X152367419Y-106181837D01*
X152381616Y-106203084D01*
X152385694Y-106205809D01*
X152385696Y-106205811D01*
X152398784Y-106214556D01*
X152406331Y-106220749D01*
X152617951Y-106432369D01*
X152624144Y-106439916D01*
X152632889Y-106453004D01*
X152632891Y-106453006D01*
X152635616Y-106457084D01*
X152656863Y-106471281D01*
X152656866Y-106471284D01*
X152718615Y-106512543D01*
X152719799Y-106513334D01*
X152794033Y-106528100D01*
X152794034Y-106528100D01*
X152794040Y-106528101D01*
X152814287Y-106532128D01*
X152814289Y-106532128D01*
X152819100Y-106533085D01*
X152823911Y-106532128D01*
X152823912Y-106532128D01*
X152839352Y-106529057D01*
X152849067Y-106528100D01*
X152933312Y-106528100D01*
X152968526Y-106542686D01*
X152980916Y-106568911D01*
X152982201Y-106568656D01*
X152991072Y-106613258D01*
X153024866Y-106663834D01*
X153075442Y-106697628D01*
X153080251Y-106698585D01*
X153080252Y-106698585D01*
X153117644Y-106706023D01*
X153117646Y-106706023D01*
X153120043Y-106706500D01*
X153834953Y-106706500D01*
X154550156Y-106706499D01*
X154552553Y-106706022D01*
X154552556Y-106706022D01*
X154568335Y-106702883D01*
X154594758Y-106697628D01*
X154601601Y-106693056D01*
X154641256Y-106666559D01*
X154645334Y-106663834D01*
X154679128Y-106613258D01*
X154680478Y-106606473D01*
X154687523Y-106571056D01*
X154687523Y-106571054D01*
X154688000Y-106568657D01*
X154687999Y-105438544D01*
X154679128Y-105393942D01*
X154645334Y-105343366D01*
X154594758Y-105309572D01*
X154589949Y-105308615D01*
X154589948Y-105308615D01*
X154552556Y-105301177D01*
X154552554Y-105301177D01*
X154550157Y-105300700D01*
X153835247Y-105300700D01*
X153120044Y-105300701D01*
X153117647Y-105301178D01*
X153117644Y-105301178D01*
X153101865Y-105304317D01*
X153075442Y-105309572D01*
X153024866Y-105343366D01*
X152991072Y-105393942D01*
X152982200Y-105438543D01*
X152982201Y-105727000D01*
X152982201Y-105956555D01*
X152967615Y-105991769D01*
X152932401Y-106006355D01*
X152897187Y-105991769D01*
X152834186Y-105928768D01*
X152819600Y-105893554D01*
X152819600Y-102747571D01*
X152820557Y-102737856D01*
X152823629Y-102722411D01*
X152824586Y-102717600D01*
X152804834Y-102618299D01*
X152774949Y-102573572D01*
X152762799Y-102555388D01*
X152762795Y-102555382D01*
X152762784Y-102555366D01*
X152762781Y-102555363D01*
X152748584Y-102534116D01*
X152744506Y-102531391D01*
X152744504Y-102531389D01*
X152731416Y-102522644D01*
X152723869Y-102516451D01*
X152090121Y-101882703D01*
X153148643Y-101882703D01*
X153151544Y-101889707D01*
X153424476Y-102162639D01*
X153428240Y-102165728D01*
X153484741Y-102203481D01*
X153493629Y-102207163D01*
X153582802Y-102224901D01*
X153592424Y-102224901D01*
X153681593Y-102207163D01*
X153690487Y-102203479D01*
X153746980Y-102165732D01*
X153750753Y-102162636D01*
X154165103Y-101748286D01*
X154168004Y-101741282D01*
X154165103Y-101734278D01*
X153736038Y-101305212D01*
X153729034Y-101302311D01*
X153722030Y-101305212D01*
X153151544Y-101875699D01*
X153148643Y-101882703D01*
X152090121Y-101882703D01*
X151472819Y-101265401D01*
X152623302Y-101265401D01*
X152641040Y-101354574D01*
X152644722Y-101363462D01*
X152682475Y-101419963D01*
X152685564Y-101423727D01*
X152958497Y-101696660D01*
X152965501Y-101699561D01*
X152972505Y-101696660D01*
X153542991Y-101126173D01*
X153545892Y-101119169D01*
X153912176Y-101119169D01*
X153915077Y-101126173D01*
X154344143Y-101555238D01*
X154351147Y-101558139D01*
X154358151Y-101555238D01*
X154772501Y-101140888D01*
X154775597Y-101137115D01*
X154813344Y-101080622D01*
X154817028Y-101071728D01*
X154834766Y-100982559D01*
X154834766Y-100972937D01*
X154817028Y-100883764D01*
X154813346Y-100874876D01*
X154775593Y-100818375D01*
X154772504Y-100814611D01*
X154499572Y-100541679D01*
X154492568Y-100538778D01*
X154485564Y-100541679D01*
X153915077Y-101112165D01*
X153912176Y-101119169D01*
X153545892Y-101119169D01*
X153542991Y-101112165D01*
X153113925Y-100683100D01*
X153106921Y-100680199D01*
X153099917Y-100683100D01*
X152685567Y-101097450D01*
X152682471Y-101101223D01*
X152644724Y-101157716D01*
X152641040Y-101166610D01*
X152623302Y-101255779D01*
X152623302Y-101265401D01*
X151472819Y-101265401D01*
X150734249Y-100526831D01*
X150728056Y-100519284D01*
X150719311Y-100506196D01*
X150719309Y-100506194D01*
X150716584Y-100502116D01*
X150695337Y-100487919D01*
X150695334Y-100487916D01*
X150632401Y-100445866D01*
X150533100Y-100426114D01*
X150528289Y-100427071D01*
X150512844Y-100430143D01*
X150503129Y-100431100D01*
X149180940Y-100431100D01*
X149145726Y-100416514D01*
X149131140Y-100381300D01*
X149139532Y-100353634D01*
X149142403Y-100349338D01*
X149142405Y-100349333D01*
X149145128Y-100345258D01*
X149154000Y-100300657D01*
X149154000Y-99889900D01*
X149168586Y-99854686D01*
X149203800Y-99840100D01*
X151335740Y-99840100D01*
X151370954Y-99854686D01*
X151385540Y-99889900D01*
X151384583Y-99899615D01*
X151381108Y-99917087D01*
X151392975Y-99976746D01*
X151418239Y-100014557D01*
X152146640Y-100742956D01*
X152184451Y-100768222D01*
X152244110Y-100780089D01*
X152303768Y-100768222D01*
X152341579Y-100742958D01*
X152587481Y-100497056D01*
X153290064Y-100497056D01*
X153292965Y-100504060D01*
X153722030Y-100933126D01*
X153729034Y-100936027D01*
X153736038Y-100933126D01*
X154306525Y-100362640D01*
X154309426Y-100355636D01*
X154306525Y-100348632D01*
X154033592Y-100075699D01*
X154029828Y-100072610D01*
X153973327Y-100034857D01*
X153964439Y-100031175D01*
X153875266Y-100013437D01*
X153865644Y-100013437D01*
X153776475Y-100031175D01*
X153767581Y-100034859D01*
X153711088Y-100072606D01*
X153707315Y-100075702D01*
X153292965Y-100490052D01*
X153290064Y-100497056D01*
X152587481Y-100497056D01*
X152594485Y-100490052D01*
X153351090Y-99733445D01*
X153352821Y-99731714D01*
X153378087Y-99693903D01*
X153389954Y-99634245D01*
X153378087Y-99574586D01*
X153352823Y-99536775D01*
X153170155Y-99354107D01*
X152626153Y-98810107D01*
X152624422Y-98808376D01*
X152586611Y-98783110D01*
X152526952Y-98771243D01*
X152467294Y-98783110D01*
X152429483Y-98808374D01*
X152427750Y-98810107D01*
X151921344Y-99316514D01*
X151886130Y-99331100D01*
X149203799Y-99331100D01*
X149168585Y-99316514D01*
X149153999Y-99281300D01*
X149153999Y-98978600D01*
X149168585Y-98943386D01*
X149203799Y-98928800D01*
X149314594Y-98928800D01*
X149321599Y-98925899D01*
X149324500Y-98918894D01*
X149577700Y-98918894D01*
X149580601Y-98925899D01*
X149587606Y-98928800D01*
X149973590Y-98928800D01*
X149978436Y-98928323D01*
X150045082Y-98915066D01*
X150053973Y-98911383D01*
X150129566Y-98860874D01*
X150136374Y-98854066D01*
X150186883Y-98778473D01*
X150190566Y-98769582D01*
X150203823Y-98702936D01*
X150204300Y-98698090D01*
X150204300Y-98112106D01*
X150201399Y-98105101D01*
X150194394Y-98102200D01*
X149587606Y-98102200D01*
X149580601Y-98105101D01*
X149577700Y-98112106D01*
X149577700Y-98918894D01*
X149324500Y-98918894D01*
X149324500Y-98112106D01*
X149321599Y-98105101D01*
X149314594Y-98102200D01*
X148707806Y-98102200D01*
X148700801Y-98105101D01*
X148697900Y-98112106D01*
X148697900Y-98682900D01*
X148683314Y-98718114D01*
X148648100Y-98732700D01*
X148307607Y-98732701D01*
X148253800Y-98732701D01*
X148218586Y-98718115D01*
X148204000Y-98682901D01*
X148203999Y-97262990D01*
X148203999Y-97260544D01*
X148202521Y-97253110D01*
X148196085Y-97220756D01*
X148195128Y-97215942D01*
X148192402Y-97211862D01*
X148192401Y-97211860D01*
X148189532Y-97207566D01*
X148182097Y-97170183D01*
X148203274Y-97138492D01*
X148230940Y-97130100D01*
X148661200Y-97130100D01*
X148696414Y-97144686D01*
X148711000Y-97179900D01*
X148710043Y-97189615D01*
X148698377Y-97248264D01*
X148697900Y-97253110D01*
X148697900Y-97839094D01*
X148700801Y-97846099D01*
X148707806Y-97849000D01*
X150194394Y-97849000D01*
X150201399Y-97846099D01*
X150204300Y-97839094D01*
X150204300Y-97253110D01*
X150203823Y-97248264D01*
X150190566Y-97181618D01*
X150186883Y-97172727D01*
X150136374Y-97097134D01*
X150129566Y-97090326D01*
X150052172Y-97038613D01*
X150030996Y-97006921D01*
X150038432Y-96969539D01*
X150044621Y-96961996D01*
X150310866Y-96695751D01*
X150318413Y-96689558D01*
X150331504Y-96680811D01*
X150331506Y-96680809D01*
X150335584Y-96678084D01*
X150338309Y-96674006D01*
X150389108Y-96597981D01*
X150389108Y-96597980D01*
X150391834Y-96593901D01*
X150396661Y-96569638D01*
X150406600Y-96519667D01*
X150406600Y-96519663D01*
X150410628Y-96499411D01*
X150411585Y-96494600D01*
X150410315Y-96488212D01*
X150407557Y-96474348D01*
X150406600Y-96464633D01*
X150406600Y-95133928D01*
X150421186Y-95098714D01*
X150456400Y-95084128D01*
X150791996Y-95084128D01*
X150794393Y-95083651D01*
X150794396Y-95083651D01*
X150813530Y-95079845D01*
X150836598Y-95075257D01*
X150858618Y-95060544D01*
X150883096Y-95044188D01*
X150887174Y-95041463D01*
X150920968Y-94990887D01*
X150921926Y-94986073D01*
X150929363Y-94948685D01*
X150929363Y-94948683D01*
X150929840Y-94946286D01*
X150929840Y-94385900D01*
X150944426Y-94350686D01*
X150979640Y-94336100D01*
X152947054Y-94336100D01*
X152982268Y-94350686D01*
X153633949Y-95002366D01*
X153640142Y-95009913D01*
X153648889Y-95023004D01*
X153648891Y-95023006D01*
X153651616Y-95027084D01*
X153672866Y-95041283D01*
X153672867Y-95041284D01*
X153735799Y-95083334D01*
X153835100Y-95103086D01*
X153839911Y-95102129D01*
X153855356Y-95099057D01*
X153865071Y-95098100D01*
X154851615Y-95098100D01*
X154886829Y-95112686D01*
X154901415Y-95147900D01*
X154886829Y-95183114D01*
X154609698Y-95460246D01*
X153792298Y-96277647D01*
X153767032Y-96315458D01*
X153755166Y-96375117D01*
X153767032Y-96434775D01*
X153769755Y-96438850D01*
X153769756Y-96438853D01*
X153780579Y-96455050D01*
X153792296Y-96472587D01*
X153794025Y-96474316D01*
X154343829Y-97024119D01*
X154358415Y-97059333D01*
X154358415Y-98202318D01*
X154343829Y-98237532D01*
X153645627Y-98935735D01*
X153620361Y-98973546D01*
X153608494Y-99033204D01*
X153620361Y-99092863D01*
X153645625Y-99130674D01*
X153647358Y-99132407D01*
X153831466Y-99316514D01*
X154374026Y-99859073D01*
X154411837Y-99884339D01*
X154471496Y-99896206D01*
X154531154Y-99884339D01*
X154568965Y-99859075D01*
X155580207Y-98847831D01*
X155605473Y-98810020D01*
X155617340Y-98750362D01*
X155605473Y-98690703D01*
X155580209Y-98652892D01*
X154882001Y-97954686D01*
X154867415Y-97919472D01*
X154867415Y-97420708D01*
X154882001Y-97385494D01*
X154889542Y-97379305D01*
X154892187Y-97377538D01*
X156115036Y-96154687D01*
X156122236Y-96143912D01*
X156129003Y-96133786D01*
X156160696Y-96112611D01*
X156198078Y-96120049D01*
X156205623Y-96126241D01*
X157378460Y-97299077D01*
X157393046Y-97334291D01*
X157378460Y-97369505D01*
X157370918Y-97375694D01*
X157350013Y-97389662D01*
X156127164Y-98612513D01*
X156101898Y-98650324D01*
X156090032Y-98709983D01*
X156101898Y-98769641D01*
X156104621Y-98773716D01*
X156104622Y-98773719D01*
X156110258Y-98782153D01*
X156127162Y-98807453D01*
X157032113Y-99712402D01*
X157034147Y-99713761D01*
X157061015Y-99731714D01*
X157069925Y-99737668D01*
X157129583Y-99749534D01*
X157189242Y-99737668D01*
X157227053Y-99712404D01*
X157242305Y-99697152D01*
X157277519Y-99682566D01*
X157312733Y-99697152D01*
X158151849Y-100536267D01*
X158166435Y-100571481D01*
X158165842Y-100579139D01*
X158150238Y-100679358D01*
X158169020Y-100822991D01*
X158178319Y-100844125D01*
X158224242Y-100948492D01*
X158227360Y-100955579D01*
X158229644Y-100958296D01*
X158299574Y-101041487D01*
X158320569Y-101066464D01*
X158441152Y-101146731D01*
X158579417Y-101189928D01*
X158582961Y-101189993D01*
X158720701Y-101192517D01*
X158724248Y-101192582D01*
X158727674Y-101191648D01*
X158860582Y-101155414D01*
X158860584Y-101155413D01*
X158864003Y-101154481D01*
X158932921Y-101112165D01*
X158984429Y-101080539D01*
X158984431Y-101080537D01*
X158987446Y-101078686D01*
X158994817Y-101070543D01*
X159082275Y-100973922D01*
X159082277Y-100973920D01*
X159084655Y-100971292D01*
X159147815Y-100840930D01*
X159171847Y-100698082D01*
X159172000Y-100685600D01*
X159153176Y-100554151D01*
X159151968Y-100545719D01*
X159151465Y-100542207D01*
X159091509Y-100410342D01*
X158996953Y-100300604D01*
X158875398Y-100221816D01*
X158736616Y-100180312D01*
X158733069Y-100180290D01*
X158733067Y-100180290D01*
X158666745Y-100179885D01*
X158591763Y-100179427D01*
X158560119Y-100188471D01*
X158522253Y-100184123D01*
X158511220Y-100175802D01*
X158093138Y-99757720D01*
X157672651Y-99337234D01*
X157658065Y-99302020D01*
X157672651Y-99266806D01*
X158448171Y-98491284D01*
X158449902Y-98489553D01*
X158475168Y-98451742D01*
X158487034Y-98392083D01*
X158475168Y-98332425D01*
X158472445Y-98328350D01*
X158472444Y-98328347D01*
X158461621Y-98312150D01*
X158449904Y-98294613D01*
X158168186Y-98012896D01*
X158153600Y-97977682D01*
X158153600Y-97489771D01*
X158154557Y-97480056D01*
X158157629Y-97464611D01*
X158158586Y-97459800D01*
X158138834Y-97360499D01*
X158096784Y-97297567D01*
X158096783Y-97297566D01*
X158082584Y-97276316D01*
X158078506Y-97273591D01*
X158078504Y-97273589D01*
X158065413Y-97264842D01*
X158057866Y-97258649D01*
X155484049Y-94684831D01*
X155477856Y-94677284D01*
X155469111Y-94664196D01*
X155469109Y-94664194D01*
X155466384Y-94660116D01*
X155445137Y-94645919D01*
X155445134Y-94645916D01*
X155382201Y-94603866D01*
X155282900Y-94584114D01*
X155278089Y-94585071D01*
X155262644Y-94588143D01*
X155252929Y-94589100D01*
X153961145Y-94589100D01*
X153925931Y-94574514D01*
X153603708Y-94252290D01*
X153274249Y-93922831D01*
X153268056Y-93915284D01*
X153259311Y-93902196D01*
X153259309Y-93902194D01*
X153256584Y-93898116D01*
X153235337Y-93883919D01*
X153235334Y-93883916D01*
X153172401Y-93841866D01*
X153098167Y-93827100D01*
X153073100Y-93822114D01*
X153068289Y-93823071D01*
X153052844Y-93826143D01*
X153043129Y-93827100D01*
X150979639Y-93827100D01*
X150944425Y-93812514D01*
X150929839Y-93777300D01*
X150929839Y-93216915D01*
X150920968Y-93172313D01*
X150887174Y-93121737D01*
X150836598Y-93087943D01*
X150831789Y-93086986D01*
X150831788Y-93086986D01*
X150794396Y-93079548D01*
X150794394Y-93079548D01*
X150791997Y-93079071D01*
X150152231Y-93079071D01*
X149512204Y-93079072D01*
X149509807Y-93079549D01*
X149509804Y-93079549D01*
X149494025Y-93082688D01*
X149467602Y-93087943D01*
X149417026Y-93121737D01*
X149383232Y-93172313D01*
X149374360Y-93216914D01*
X149374361Y-94946285D01*
X149383232Y-94990887D01*
X149417026Y-95041463D01*
X149467602Y-95075257D01*
X149472411Y-95076214D01*
X149472412Y-95076214D01*
X149509804Y-95083652D01*
X149509806Y-95083652D01*
X149512203Y-95084129D01*
X149847800Y-95084129D01*
X149883014Y-95098715D01*
X149897600Y-95133929D01*
X149897600Y-96368555D01*
X149883014Y-96403769D01*
X149680268Y-96606514D01*
X149645054Y-96621100D01*
X149180940Y-96621100D01*
X149145726Y-96606514D01*
X149131140Y-96571300D01*
X149139532Y-96543634D01*
X149142403Y-96539338D01*
X149142405Y-96539333D01*
X149145128Y-96535258D01*
X149146086Y-96530444D01*
X149153523Y-96493056D01*
X149153523Y-96493054D01*
X149154000Y-96490657D01*
X149153999Y-95060544D01*
X149153201Y-95056529D01*
X149147831Y-95029532D01*
X149145128Y-95015942D01*
X149130637Y-94994254D01*
X149114059Y-94969444D01*
X149111334Y-94965366D01*
X149060758Y-94931572D01*
X149055949Y-94930615D01*
X149055948Y-94930615D01*
X149018556Y-94923177D01*
X149018554Y-94923177D01*
X149016157Y-94922700D01*
X148913894Y-94922700D01*
X148071746Y-94922701D01*
X148036532Y-94908115D01*
X147642426Y-94514008D01*
X147627840Y-94478794D01*
X147627839Y-93219361D01*
X147627839Y-93216915D01*
X147618968Y-93172313D01*
X147585174Y-93121737D01*
X147534598Y-93087943D01*
X147529789Y-93086986D01*
X147529788Y-93086986D01*
X147492396Y-93079548D01*
X147492394Y-93079548D01*
X147489997Y-93079071D01*
X146850231Y-93079071D01*
X146210204Y-93079072D01*
X146207807Y-93079549D01*
X146207804Y-93079549D01*
X146192025Y-93082688D01*
X146165602Y-93087943D01*
X146115026Y-93121737D01*
X146081232Y-93172313D01*
X146072360Y-93216914D01*
X146072361Y-94946285D01*
X146081232Y-94990887D01*
X146115026Y-95041463D01*
X146165602Y-95075257D01*
X146170411Y-95076214D01*
X146170412Y-95076214D01*
X146207804Y-95083652D01*
X146207806Y-95083652D01*
X146210203Y-95084129D01*
X146363899Y-95084129D01*
X147472082Y-95084128D01*
X147507296Y-95098714D01*
X147833614Y-95425032D01*
X147848200Y-95460246D01*
X147848201Y-96490656D01*
X147857072Y-96535258D01*
X147859798Y-96539338D01*
X147859799Y-96539340D01*
X147862668Y-96543634D01*
X147870103Y-96581017D01*
X147848926Y-96612708D01*
X147821260Y-96621100D01*
X143181617Y-96621100D01*
X143146403Y-96606514D01*
X143131817Y-96571300D01*
X143146403Y-96536086D01*
X143209902Y-96472587D01*
X143235168Y-96434775D01*
X143247034Y-96375117D01*
X143235168Y-96315458D01*
X143209904Y-96277647D01*
X141987053Y-95054798D01*
X141949242Y-95029532D01*
X141889583Y-95017666D01*
X141859754Y-95023599D01*
X141842233Y-95027084D01*
X141829925Y-95029532D01*
X141825850Y-95032255D01*
X141825847Y-95032256D01*
X141812336Y-95041284D01*
X141792113Y-95054796D01*
X141790384Y-95056525D01*
X140899828Y-95947083D01*
X140864614Y-95961669D01*
X140478302Y-95961669D01*
X140468587Y-95960712D01*
X140453142Y-95957640D01*
X140448331Y-95956683D01*
X140349030Y-95976435D01*
X140286098Y-96018485D01*
X140286097Y-96018486D01*
X140264847Y-96032685D01*
X140262122Y-96036763D01*
X140262120Y-96036765D01*
X140253373Y-96049856D01*
X140247180Y-96057403D01*
X138080731Y-98223851D01*
X138073184Y-98230044D01*
X138060096Y-98238789D01*
X138060094Y-98238791D01*
X138056016Y-98241516D01*
X138041819Y-98262763D01*
X138041816Y-98262766D01*
X138041805Y-98262782D01*
X138041801Y-98262788D01*
X138021692Y-98292884D01*
X137999766Y-98325699D01*
X137986562Y-98392083D01*
X137980014Y-98425000D01*
X137980971Y-98429811D01*
X137984043Y-98445256D01*
X137985000Y-98454971D01*
X137985000Y-103094029D01*
X137984043Y-103103744D01*
X137980014Y-103124000D01*
X135942609Y-103124000D01*
X135967485Y-102963313D01*
X135967699Y-102962044D01*
X136059579Y-102461433D01*
X136059845Y-102460088D01*
X136122414Y-102165728D01*
X136153834Y-102017906D01*
X136154487Y-102015208D01*
X136155382Y-102011916D01*
X136273008Y-101578978D01*
X136273388Y-101577651D01*
X136319861Y-101423727D01*
X136338056Y-101363462D01*
X136420492Y-101090420D01*
X136420913Y-101089095D01*
X136563591Y-100660190D01*
X136564542Y-100657576D01*
X136730962Y-100237248D01*
X136731492Y-100235963D01*
X136875650Y-99899615D01*
X136931986Y-99768174D01*
X136932514Y-99766988D01*
X137122141Y-99356598D01*
X137123377Y-99354107D01*
X137335608Y-98954960D01*
X137336278Y-98953742D01*
X137587650Y-98511246D01*
X137588354Y-98510046D01*
X137822525Y-98123384D01*
X137824031Y-98121047D01*
X138079424Y-97748056D01*
X138080226Y-97746919D01*
X138379367Y-97335187D01*
X138380200Y-97334074D01*
X138656010Y-96975926D01*
X138657768Y-96973771D01*
X138661421Y-96969539D01*
X138953141Y-96631578D01*
X138954052Y-96630552D01*
X138983794Y-96597981D01*
X139180026Y-96383079D01*
X139297228Y-96254727D01*
X139298180Y-96253713D01*
X139514255Y-96029960D01*
X139612202Y-95928533D01*
X139614182Y-95926594D01*
X139815881Y-95739819D01*
X139945898Y-95619423D01*
X139946865Y-95618552D01*
X140329823Y-95283298D01*
X140330826Y-95282443D01*
X140652971Y-95015942D01*
X140679187Y-94994254D01*
X140681379Y-94992542D01*
X141045227Y-94724290D01*
X141046357Y-94723481D01*
X141464243Y-94433043D01*
X141465396Y-94432265D01*
X141740426Y-94252290D01*
X141843674Y-94184726D01*
X141846021Y-94183283D01*
X142085364Y-94045098D01*
X142237531Y-93957245D01*
X142238745Y-93956567D01*
X142686357Y-93714544D01*
X142687589Y-93713899D01*
X142994746Y-93558742D01*
X143091131Y-93510054D01*
X143093628Y-93508880D01*
X143507863Y-93327905D01*
X143509145Y-93327366D01*
X143776467Y-93219361D01*
X143981029Y-93136713D01*
X143982287Y-93136224D01*
X144251616Y-93036062D01*
X144406009Y-92978644D01*
X144408642Y-92977748D01*
X144671544Y-92896366D01*
X144840509Y-92844063D01*
X144841791Y-92843686D01*
X145331959Y-92706828D01*
X145333255Y-92706485D01*
X145734418Y-92606464D01*
X145771935Y-92597110D01*
X145774651Y-92596513D01*
X146218709Y-92511804D01*
X146220079Y-92511563D01*
X146722412Y-92430203D01*
X146723775Y-92430001D01*
X147171909Y-92370207D01*
X147174637Y-92369921D01*
X147625336Y-92335242D01*
X147626716Y-92335154D01*
X147690219Y-92332048D01*
X148135069Y-92310292D01*
X148136459Y-92310244D01*
X148391934Y-92304892D01*
X148588396Y-92300777D01*
X148591156Y-92300796D01*
G37*
G04 #@! TD.AperFunction*
G04 #@! TA.AperFunction,Conductor*
G36*
X146883615Y-98244686D02*
G01*
X146898201Y-98279900D01*
X146898201Y-98690656D01*
X146898678Y-98693053D01*
X146898678Y-98693056D01*
X146900643Y-98702936D01*
X146907072Y-98735258D01*
X146909798Y-98739337D01*
X146909798Y-98739338D01*
X146938141Y-98781756D01*
X146940866Y-98785834D01*
X146991442Y-98819628D01*
X146996251Y-98820585D01*
X146996252Y-98820585D01*
X147033644Y-98828023D01*
X147033646Y-98828023D01*
X147036043Y-98828500D01*
X147363454Y-98828500D01*
X147398668Y-98843086D01*
X147833614Y-99278032D01*
X147848200Y-99313246D01*
X147848201Y-99814213D01*
X147848201Y-100300656D01*
X147857072Y-100345258D01*
X147859798Y-100349337D01*
X147859798Y-100349338D01*
X147887486Y-100390775D01*
X147890866Y-100395834D01*
X147941442Y-100429628D01*
X147946251Y-100430585D01*
X147946252Y-100430585D01*
X147983644Y-100438023D01*
X147983646Y-100438023D01*
X147986043Y-100438500D01*
X148266953Y-100438500D01*
X148302167Y-100453086D01*
X148316753Y-100488300D01*
X148308362Y-100515964D01*
X148306146Y-100519281D01*
X148299951Y-100526831D01*
X147908668Y-100918114D01*
X147873454Y-100932700D01*
X147127002Y-100932701D01*
X147036044Y-100932701D01*
X147033647Y-100933178D01*
X147033644Y-100933178D01*
X147019321Y-100936027D01*
X146991442Y-100941572D01*
X146987363Y-100944298D01*
X146987362Y-100944298D01*
X146970479Y-100955579D01*
X146940866Y-100975366D01*
X146907072Y-101025942D01*
X146906115Y-101030751D01*
X146906115Y-101030752D01*
X146904792Y-101037406D01*
X146898200Y-101070543D01*
X146898201Y-102500656D01*
X146898678Y-102503053D01*
X146898678Y-102503056D01*
X146901817Y-102518835D01*
X146907072Y-102545258D01*
X146940866Y-102595834D01*
X146944944Y-102598559D01*
X146958125Y-102607366D01*
X146991442Y-102629628D01*
X146996251Y-102630585D01*
X146996252Y-102630585D01*
X147033644Y-102638023D01*
X147033646Y-102638023D01*
X147036043Y-102638500D01*
X147550994Y-102638500D01*
X148066156Y-102638499D01*
X148068553Y-102638022D01*
X148068556Y-102638022D01*
X148088439Y-102634067D01*
X148110758Y-102629628D01*
X148120509Y-102623113D01*
X148157256Y-102598559D01*
X148161334Y-102595834D01*
X148195128Y-102545258D01*
X148196533Y-102538194D01*
X148203523Y-102503056D01*
X148203523Y-102503054D01*
X148204000Y-102500657D01*
X148203999Y-101363247D01*
X148218585Y-101328033D01*
X148591932Y-100954686D01*
X148627146Y-100940100D01*
X148771260Y-100940100D01*
X148806474Y-100954686D01*
X148821060Y-100989900D01*
X148812668Y-101017566D01*
X148809797Y-101021862D01*
X148809795Y-101021867D01*
X148807072Y-101025942D01*
X148806115Y-101030751D01*
X148806115Y-101030752D01*
X148804792Y-101037406D01*
X148798200Y-101070543D01*
X148798201Y-102500656D01*
X148798678Y-102503053D01*
X148798678Y-102503056D01*
X148801817Y-102518835D01*
X148807072Y-102545258D01*
X148840866Y-102595834D01*
X148844944Y-102598559D01*
X148858125Y-102607366D01*
X148891442Y-102629628D01*
X148896251Y-102630585D01*
X148896252Y-102630585D01*
X148933644Y-102638023D01*
X148933646Y-102638023D01*
X148936043Y-102638500D01*
X149146800Y-102638500D01*
X149182014Y-102653086D01*
X149196600Y-102688300D01*
X149196600Y-102911554D01*
X149182014Y-102946768D01*
X148156268Y-103972514D01*
X148121054Y-103987100D01*
X144119799Y-103987100D01*
X144084585Y-103972514D01*
X144069999Y-103937300D01*
X144069999Y-103502090D01*
X144691900Y-103502090D01*
X144692377Y-103506936D01*
X144705634Y-103573582D01*
X144709317Y-103582473D01*
X144759826Y-103658066D01*
X144766634Y-103664874D01*
X144842227Y-103715383D01*
X144851118Y-103719066D01*
X144917764Y-103732323D01*
X144922610Y-103732800D01*
X145570594Y-103732800D01*
X145577599Y-103729899D01*
X145580500Y-103722894D01*
X145833700Y-103722894D01*
X145836601Y-103729899D01*
X145843606Y-103732800D01*
X146491590Y-103732800D01*
X146496436Y-103732323D01*
X146563082Y-103719066D01*
X146571973Y-103715383D01*
X146647566Y-103664874D01*
X146654374Y-103658066D01*
X146704883Y-103582473D01*
X146708566Y-103573582D01*
X146721823Y-103506936D01*
X146722300Y-103502090D01*
X146722300Y-103235106D01*
X146719399Y-103228101D01*
X146712394Y-103225200D01*
X145843606Y-103225200D01*
X145836601Y-103228101D01*
X145833700Y-103235106D01*
X145833700Y-103722894D01*
X145580500Y-103722894D01*
X145580500Y-103235106D01*
X145577599Y-103228101D01*
X145570594Y-103225200D01*
X144701806Y-103225200D01*
X144694801Y-103228101D01*
X144691900Y-103235106D01*
X144691900Y-103502090D01*
X144069999Y-103502090D01*
X144069999Y-103488544D01*
X144061128Y-103443942D01*
X144057521Y-103438543D01*
X144030059Y-103397444D01*
X144027334Y-103393366D01*
X143976758Y-103359572D01*
X143971949Y-103358615D01*
X143971948Y-103358615D01*
X143934556Y-103351177D01*
X143934554Y-103351177D01*
X143932157Y-103350700D01*
X143167257Y-103350700D01*
X142402044Y-103350701D01*
X142399647Y-103351178D01*
X142399644Y-103351178D01*
X142383865Y-103354317D01*
X142357442Y-103359572D01*
X142306866Y-103393366D01*
X142273072Y-103443942D01*
X142264200Y-103488543D01*
X142264200Y-103849300D01*
X142249614Y-103884514D01*
X142214400Y-103899100D01*
X142087799Y-103899100D01*
X142052585Y-103884514D01*
X142037999Y-103849300D01*
X142037999Y-103488544D01*
X142029128Y-103443942D01*
X142025521Y-103438543D01*
X141998059Y-103397444D01*
X141995334Y-103393366D01*
X141944758Y-103359572D01*
X141939949Y-103358615D01*
X141939948Y-103358615D01*
X141902556Y-103351177D01*
X141902554Y-103351177D01*
X141900157Y-103350700D01*
X141135257Y-103350700D01*
X140370044Y-103350701D01*
X140367647Y-103351178D01*
X140367644Y-103351178D01*
X140351865Y-103354317D01*
X140325442Y-103359572D01*
X140274866Y-103393366D01*
X140241072Y-103443942D01*
X140232200Y-103488543D01*
X140232200Y-103849300D01*
X140217614Y-103884514D01*
X140182400Y-103899100D01*
X139752396Y-103899100D01*
X139714669Y-103881807D01*
X139695270Y-103859293D01*
X139692953Y-103856604D01*
X139571398Y-103777816D01*
X139432616Y-103736312D01*
X139429069Y-103736290D01*
X139429067Y-103736290D01*
X139362745Y-103735885D01*
X139287763Y-103735427D01*
X139256119Y-103744471D01*
X139218253Y-103740123D01*
X139207220Y-103731802D01*
X138508586Y-103033168D01*
X138494000Y-102997954D01*
X138494000Y-102962094D01*
X144691900Y-102962094D01*
X144694801Y-102969099D01*
X144701806Y-102972000D01*
X145570594Y-102972000D01*
X145577599Y-102969099D01*
X145580500Y-102962094D01*
X145833700Y-102962094D01*
X145836601Y-102969099D01*
X145843606Y-102972000D01*
X146712394Y-102972000D01*
X146719399Y-102969099D01*
X146722300Y-102962094D01*
X146722300Y-102695110D01*
X146721823Y-102690264D01*
X146708566Y-102623618D01*
X146704883Y-102614727D01*
X146654374Y-102539134D01*
X146647566Y-102532326D01*
X146571973Y-102481817D01*
X146563082Y-102478134D01*
X146496436Y-102464877D01*
X146491590Y-102464400D01*
X145843606Y-102464400D01*
X145836601Y-102467301D01*
X145833700Y-102474306D01*
X145833700Y-102962094D01*
X145580500Y-102962094D01*
X145580500Y-102474306D01*
X145577599Y-102467301D01*
X145570594Y-102464400D01*
X144922610Y-102464400D01*
X144917764Y-102464877D01*
X144851118Y-102478134D01*
X144842227Y-102481817D01*
X144766634Y-102532326D01*
X144759826Y-102539134D01*
X144709317Y-102614727D01*
X144705634Y-102623618D01*
X144692377Y-102690264D01*
X144691900Y-102695110D01*
X144691900Y-102962094D01*
X138494000Y-102962094D01*
X138494000Y-98551485D01*
X138508586Y-98516271D01*
X138543800Y-98501685D01*
X138579014Y-98516271D01*
X138879647Y-98816903D01*
X139775147Y-99712402D01*
X139812958Y-99737668D01*
X139872617Y-99749534D01*
X139877428Y-99748577D01*
X139927464Y-99738625D01*
X139932275Y-99737668D01*
X139936350Y-99734945D01*
X139936353Y-99734944D01*
X139952550Y-99724121D01*
X139970087Y-99712404D01*
X140521619Y-99160871D01*
X140556833Y-99146285D01*
X141699818Y-99146285D01*
X141735032Y-99160871D01*
X142433235Y-99859073D01*
X142471046Y-99884339D01*
X142530704Y-99896206D01*
X142590363Y-99884339D01*
X142628174Y-99859075D01*
X142826808Y-99660441D01*
X142862021Y-99645855D01*
X142897235Y-99660441D01*
X142910864Y-99685939D01*
X142911643Y-99689855D01*
X142912600Y-99699571D01*
X142912600Y-100252924D01*
X142898014Y-100288138D01*
X142748130Y-100438023D01*
X142305876Y-100880278D01*
X142280610Y-100918089D01*
X142268743Y-100977748D01*
X142280610Y-101037406D01*
X142305874Y-101075217D01*
X142307607Y-101076950D01*
X142562640Y-101331982D01*
X143317118Y-102086459D01*
X143354929Y-102111725D01*
X143414587Y-102123592D01*
X143474246Y-102111725D01*
X143512057Y-102086461D01*
X144240456Y-101358060D01*
X144265722Y-101320249D01*
X144277589Y-101260590D01*
X144265722Y-101200932D01*
X144240458Y-101163121D01*
X143475114Y-100397779D01*
X144177699Y-100397779D01*
X144180600Y-100404783D01*
X144594950Y-100819133D01*
X144598723Y-100822229D01*
X144655216Y-100859976D01*
X144664110Y-100863660D01*
X144753279Y-100881398D01*
X144762901Y-100881398D01*
X144852074Y-100863660D01*
X144860962Y-100859978D01*
X144917463Y-100822225D01*
X144921227Y-100819136D01*
X145194160Y-100546204D01*
X145197061Y-100539200D01*
X145194160Y-100532196D01*
X144623673Y-99961709D01*
X144616669Y-99958808D01*
X144609665Y-99961709D01*
X144180600Y-100390775D01*
X144177699Y-100397779D01*
X143475114Y-100397779D01*
X143436186Y-100358851D01*
X143421600Y-100323637D01*
X143421600Y-99795646D01*
X143436186Y-99760432D01*
X143460267Y-99736351D01*
X143495481Y-99721765D01*
X143530695Y-99736351D01*
X143536888Y-99743898D01*
X143570106Y-99793611D01*
X143573202Y-99797385D01*
X143987552Y-100211735D01*
X143994556Y-100214636D01*
X144001560Y-100211735D01*
X144437630Y-99775666D01*
X144799811Y-99775666D01*
X144802712Y-99782670D01*
X145373199Y-100353157D01*
X145380203Y-100356058D01*
X145387207Y-100353157D01*
X145660139Y-100080224D01*
X145663228Y-100076460D01*
X145700981Y-100019959D01*
X145704663Y-100011071D01*
X145722401Y-99921898D01*
X145722401Y-99912276D01*
X145704663Y-99823107D01*
X145700979Y-99814213D01*
X145663232Y-99757720D01*
X145660136Y-99753947D01*
X145245786Y-99339597D01*
X145238782Y-99336696D01*
X145231778Y-99339597D01*
X144802712Y-99768662D01*
X144799811Y-99775666D01*
X144437630Y-99775666D01*
X144616669Y-99596627D01*
X145052738Y-99160557D01*
X145055639Y-99153553D01*
X145052738Y-99146549D01*
X144638388Y-98732199D01*
X144634614Y-98729103D01*
X144584901Y-98695885D01*
X144563725Y-98664193D01*
X144571161Y-98626811D01*
X144577354Y-98619264D01*
X144951931Y-98244686D01*
X144987145Y-98230100D01*
X146848401Y-98230100D01*
X146883615Y-98244686D01*
G37*
G04 #@! TD.AperFunction*
G04 #@! TD*
M02*
