G04 #@! TF.GenerationSoftware,KiCad,Pcbnew,(6.0.0)*
G04 #@! TF.CreationDate,2022-11-07T22:53:33+10:30*
G04 #@! TF.ProjectId,MicroTVbGone_r2,4d696372-6f54-4566-9247-6f6e655f7232,rev?*
G04 #@! TF.SameCoordinates,Original*
G04 #@! TF.FileFunction,Copper,L2,Bot*
G04 #@! TF.FilePolarity,Positive*
%FSLAX46Y46*%
G04 Gerber Fmt 4.6, Leading zero omitted, Abs format (unit mm)*
G04 Created by KiCad (PCBNEW (6.0.0)) date 2022-11-07 22:53:33*
%MOMM*%
%LPD*%
G01*
G04 APERTURE LIST*
G04 Aperture macros list*
%AMRoundRect*
0 Rectangle with rounded corners*
0 $1 Rounding radius*
0 $2 $3 $4 $5 $6 $7 $8 $9 X,Y pos of 4 corners*
0 Add a 4 corners polygon primitive as box body*
4,1,4,$2,$3,$4,$5,$6,$7,$8,$9,$2,$3,0*
0 Add four circle primitives for the rounded corners*
1,1,$1+$1,$2,$3*
1,1,$1+$1,$4,$5*
1,1,$1+$1,$6,$7*
1,1,$1+$1,$8,$9*
0 Add four rect primitives between the rounded corners*
20,1,$1+$1,$2,$3,$4,$5,0*
20,1,$1+$1,$4,$5,$6,$7,0*
20,1,$1+$1,$6,$7,$8,$9,0*
20,1,$1+$1,$8,$9,$2,$3,0*%
G04 Aperture macros list end*
G04 #@! TA.AperFunction,SMDPad,CuDef*
%ADD10RoundRect,3.810000X0.000000X0.000000X0.000000X0.000000X0.000000X0.000000X0.000000X0.000000X0*%
G04 #@! TD*
G04 #@! TA.AperFunction,SMDPad,CuDef*
%ADD11R,1.778000X5.080000*%
G04 #@! TD*
G04 #@! TA.AperFunction,ViaPad*
%ADD12C,0.705600*%
G04 #@! TD*
G04 #@! TA.AperFunction,Conductor*
%ADD13C,0.203200*%
G04 #@! TD*
G04 APERTURE END LIST*
D10*
G04 #@! TO.P,U$1,NEG*
G04 #@! TO.N,GND*
X148501100Y-105003600D03*
D11*
G04 #@! TO.P,U$1,POS*
G04 #@! TO.N,VCC*
X137375900Y-105003600D03*
G04 #@! TO.P,U$1,POS_2*
X159626300Y-105003600D03*
G04 #@! TD*
D12*
G04 #@! TO.N,VCC*
X158661100Y-100685600D03*
X139357100Y-104241600D03*
G04 #@! TO.N,GND*
X152565100Y-96113600D03*
X143167100Y-108305600D03*
X146469100Y-100177600D03*
G04 #@! TD*
D13*
G04 #@! TO.N,VCC*
X138595100Y-105003600D02*
X139357100Y-104241600D01*
X159626300Y-105003600D02*
X159626300Y-101650800D01*
X159626300Y-101650800D02*
X158661100Y-100685600D01*
X137375900Y-105003600D02*
X138595100Y-105003600D01*
G04 #@! TO.N,GND*
X144437100Y-105003600D02*
X144437100Y-107543600D01*
X148501100Y-105003600D02*
X144437100Y-105003600D01*
X150533100Y-96113600D02*
X152565100Y-96113600D01*
X144691100Y-104749600D02*
X144691100Y-101701600D01*
X143675100Y-108305600D02*
X143167100Y-108305600D01*
X146469100Y-100177600D02*
X150533100Y-96113600D01*
X146215100Y-100177600D02*
X146469100Y-100177600D01*
X144437100Y-107543600D02*
X143675100Y-108305600D01*
X144437100Y-105003600D02*
X144691100Y-104749600D01*
X144691100Y-101701600D02*
X146215100Y-100177600D01*
G04 #@! TD*
G04 #@! TA.AperFunction,Conductor*
G04 #@! TO.N,GND*
G36*
X148591156Y-92300796D02*
G01*
X148932891Y-92312729D01*
X149042954Y-92316573D01*
X149044343Y-92316641D01*
X149552266Y-92348597D01*
X149553652Y-92348704D01*
X149727712Y-92364544D01*
X150003824Y-92389672D01*
X150006564Y-92389999D01*
X150151774Y-92411442D01*
X150453801Y-92456042D01*
X150455174Y-92456265D01*
X150956313Y-92544629D01*
X150957679Y-92544889D01*
X151400517Y-92635790D01*
X151403224Y-92636425D01*
X151571307Y-92680834D01*
X151840307Y-92751907D01*
X151841567Y-92752259D01*
X152271063Y-92878666D01*
X152329805Y-92895955D01*
X152331133Y-92896366D01*
X152761089Y-93036067D01*
X152763680Y-93036990D01*
X153016054Y-93134879D01*
X153185169Y-93200475D01*
X153186458Y-93200996D01*
X153405430Y-93293043D01*
X153655599Y-93398204D01*
X153656829Y-93398742D01*
X154068554Y-93585509D01*
X154071017Y-93586710D01*
X154253471Y-93682095D01*
X154471626Y-93796144D01*
X154472849Y-93796805D01*
X154917118Y-94045098D01*
X154918323Y-94045794D01*
X155306599Y-94277253D01*
X155308947Y-94278743D01*
X155683721Y-94531532D01*
X155684863Y-94532326D01*
X156098647Y-94828565D01*
X156099766Y-94829390D01*
X156459839Y-95102701D01*
X156462006Y-95104443D01*
X156806262Y-95397428D01*
X156807309Y-95398344D01*
X157185506Y-95738874D01*
X157186526Y-95739819D01*
X157513887Y-96051560D01*
X157515847Y-96053534D01*
X157704780Y-96254727D01*
X157825310Y-96383079D01*
X157826207Y-96384061D01*
X158164135Y-96764679D01*
X158164990Y-96765669D01*
X158339608Y-96973771D01*
X158455598Y-97112002D01*
X158457325Y-97114182D01*
X158728094Y-97476127D01*
X158728912Y-97477252D01*
X159022260Y-97893099D01*
X159023045Y-97894246D01*
X159273225Y-98270797D01*
X159274699Y-98273154D01*
X159414387Y-98511246D01*
X159503458Y-98663064D01*
X159504145Y-98664274D01*
X159749305Y-99110219D01*
X159749958Y-99111447D01*
X159956583Y-99513496D01*
X159957785Y-99516003D01*
X160141686Y-99929051D01*
X160142206Y-99930267D01*
X160228206Y-100138919D01*
X160336129Y-100400761D01*
X160336641Y-100402054D01*
X160430243Y-100648462D01*
X160496541Y-100822991D01*
X160497169Y-100824645D01*
X160498082Y-100827264D01*
X160627902Y-101236509D01*
X160634776Y-101258179D01*
X160635176Y-101259503D01*
X160737341Y-101615793D01*
X160775451Y-101748700D01*
X160775815Y-101750042D01*
X160888230Y-102187872D01*
X160888847Y-102190584D01*
X160976659Y-102634067D01*
X160976910Y-102635435D01*
X161061776Y-103137195D01*
X161061988Y-103138569D01*
X161124901Y-103586215D01*
X161125211Y-103588979D01*
X161163038Y-104039441D01*
X161163134Y-104040821D01*
X161190480Y-104529922D01*
X161191542Y-104548923D01*
X161191600Y-104550292D01*
X161197113Y-104747648D01*
X161204233Y-105002571D01*
X161204247Y-105004656D01*
X161200389Y-105281001D01*
X161199324Y-105357254D01*
X161199252Y-105359316D01*
X161182400Y-105660738D01*
X161173997Y-105811027D01*
X161173900Y-105812414D01*
X161131317Y-106319518D01*
X161131182Y-106320902D01*
X161080791Y-106770155D01*
X161080404Y-106772909D01*
X161005015Y-107218630D01*
X161004764Y-107219998D01*
X160905912Y-107719241D01*
X160905622Y-107720599D01*
X160807492Y-108152526D01*
X160805480Y-108161380D01*
X160804789Y-108164074D01*
X160680181Y-108598631D01*
X160679779Y-108599962D01*
X160525900Y-109085049D01*
X160525461Y-109086368D01*
X160376792Y-109513289D01*
X160375816Y-109515857D01*
X160303570Y-109691140D01*
X160203566Y-109933768D01*
X160203019Y-109935047D01*
X159995998Y-110400022D01*
X159995414Y-110401284D01*
X159909164Y-110581302D01*
X159800091Y-110808955D01*
X159798840Y-110811389D01*
X159591412Y-111188701D01*
X159581048Y-111207553D01*
X159580374Y-111208740D01*
X159322826Y-111647720D01*
X159322177Y-111648793D01*
X159123657Y-111966490D01*
X159082568Y-112032246D01*
X159081032Y-112034558D01*
X158978104Y-112180467D01*
X158820430Y-112403985D01*
X158819614Y-112405107D01*
X158557520Y-112755456D01*
X158514804Y-112812555D01*
X158513956Y-112813657D01*
X158233152Y-113167943D01*
X158231364Y-113170073D01*
X157931244Y-113508107D01*
X157930307Y-113509134D01*
X157581895Y-113880155D01*
X157580989Y-113881094D01*
X157318704Y-114145216D01*
X157262430Y-114201884D01*
X157260416Y-114203802D01*
X156924458Y-114506299D01*
X156923411Y-114507215D01*
X156535881Y-114837030D01*
X156534810Y-114837916D01*
X156182502Y-115121180D01*
X156180290Y-115122859D01*
X156109337Y-115173656D01*
X155812737Y-115386000D01*
X155811595Y-115386794D01*
X155389688Y-115671374D01*
X155388524Y-115672136D01*
X155075548Y-115870757D01*
X155006823Y-115914371D01*
X155004454Y-115915783D01*
X154609793Y-116136352D01*
X154608692Y-116136947D01*
X154244651Y-116327263D01*
X154157627Y-116372758D01*
X154156386Y-116373385D01*
X153750082Y-116571552D01*
X153747549Y-116572701D01*
X153330816Y-116747879D01*
X153329527Y-116748400D01*
X153073946Y-116847534D01*
X152855013Y-116932452D01*
X152853749Y-116932921D01*
X152714141Y-116982634D01*
X152427912Y-117084555D01*
X152425269Y-117085415D01*
X152145671Y-117167705D01*
X151991605Y-117213049D01*
X151990275Y-117213420D01*
X151504579Y-117341747D01*
X151498228Y-117343425D01*
X151496882Y-117343760D01*
X151432206Y-117358930D01*
X151056777Y-117446986D01*
X151054053Y-117447545D01*
X150608889Y-117526039D01*
X150607516Y-117526262D01*
X150205889Y-117585570D01*
X150104047Y-117600608D01*
X150102679Y-117600791D01*
X149653799Y-117654316D01*
X149651030Y-117654568D01*
X149199881Y-117682952D01*
X149198492Y-117683020D01*
X148849080Y-117695222D01*
X148689853Y-117700782D01*
X148688496Y-117700811D01*
X148477478Y-117702284D01*
X148236461Y-117703966D01*
X148233680Y-117703908D01*
X147782156Y-117681825D01*
X147780768Y-117681737D01*
X147273349Y-117642693D01*
X147271965Y-117642567D01*
X146822407Y-117595317D01*
X146819650Y-117594949D01*
X146373437Y-117522678D01*
X146372068Y-117522437D01*
X146242071Y-117497639D01*
X145872091Y-117427062D01*
X145870853Y-117426807D01*
X145429262Y-117329718D01*
X145426600Y-117329053D01*
X144991181Y-117207482D01*
X144989912Y-117207109D01*
X144768052Y-117138432D01*
X144503691Y-117056598D01*
X144502368Y-117056168D01*
X144074452Y-116910494D01*
X144071846Y-116909525D01*
X143652715Y-116740185D01*
X143651433Y-116739646D01*
X143185076Y-116535900D01*
X143183809Y-116535325D01*
X142774772Y-116342847D01*
X142772315Y-116341605D01*
X142552501Y-116222752D01*
X142374666Y-116126597D01*
X142373452Y-116125919D01*
X141932731Y-115871469D01*
X141931536Y-115870757D01*
X141546498Y-115633880D01*
X141544171Y-115632357D01*
X141172968Y-115374364D01*
X141171838Y-115373555D01*
X141164286Y-115367987D01*
X140762203Y-115071546D01*
X140761135Y-115070735D01*
X140597183Y-114942642D01*
X140404895Y-114792410D01*
X140402752Y-114790637D01*
X140062630Y-114492883D01*
X140061597Y-114491953D01*
X139688172Y-114146158D01*
X139687201Y-114145234D01*
X139519744Y-113981248D01*
X139364201Y-113828928D01*
X139362269Y-113826927D01*
X139162769Y-113608447D01*
X139057437Y-113493094D01*
X139056522Y-113492063D01*
X138724005Y-113106838D01*
X138723111Y-113105773D01*
X138437399Y-112755456D01*
X138435702Y-112753253D01*
X138169980Y-112387515D01*
X138169178Y-112386378D01*
X137881674Y-111966490D01*
X137880905Y-111965332D01*
X137636025Y-111585353D01*
X137634584Y-111582974D01*
X137411298Y-111189919D01*
X137410628Y-111188701D01*
X137171701Y-110739346D01*
X137171066Y-110738109D01*
X136970077Y-110333218D01*
X136968910Y-110330693D01*
X136790830Y-109915202D01*
X136790300Y-109913917D01*
X136602954Y-109440735D01*
X136602460Y-109439435D01*
X136447851Y-109014650D01*
X136446973Y-109012011D01*
X136316317Y-108579258D01*
X136315934Y-108577921D01*
X136182502Y-108086810D01*
X136182156Y-108085463D01*
X136131446Y-107875856D01*
X136075856Y-107646073D01*
X136075281Y-107643365D01*
X136068669Y-107607338D01*
X135993669Y-107198696D01*
X135993452Y-107197415D01*
X135915587Y-106694433D01*
X135915394Y-106693056D01*
X135858741Y-106244602D01*
X135858469Y-106241834D01*
X135826933Y-105790850D01*
X135826856Y-105789461D01*
X135806672Y-105307900D01*
X135805545Y-105281001D01*
X135805508Y-105279684D01*
X135799195Y-104827610D01*
X135799234Y-104824843D01*
X135802275Y-104752301D01*
X135818164Y-104373188D01*
X135818240Y-104371823D01*
X135853743Y-103864117D01*
X135853860Y-103862731D01*
X135897969Y-103412866D01*
X135898317Y-103410107D01*
X135898696Y-103407660D01*
X135967485Y-102963313D01*
X135967699Y-102962044D01*
X136059579Y-102461433D01*
X136059845Y-102460088D01*
X136061780Y-102450988D01*
X136062300Y-102448543D01*
X136334000Y-102448543D01*
X136334001Y-107558656D01*
X136342872Y-107603258D01*
X136376666Y-107653834D01*
X136427242Y-107687628D01*
X136432051Y-107688585D01*
X136432052Y-107688585D01*
X136469444Y-107696023D01*
X136469446Y-107696023D01*
X136471843Y-107696500D01*
X137375715Y-107696500D01*
X138279956Y-107696499D01*
X138282353Y-107696022D01*
X138282356Y-107696022D01*
X138298135Y-107692883D01*
X138324558Y-107687628D01*
X138375134Y-107653834D01*
X138408928Y-107603258D01*
X138413298Y-107581289D01*
X138417323Y-107561056D01*
X138417323Y-107561054D01*
X138417800Y-107558657D01*
X138417800Y-105307900D01*
X138432386Y-105272686D01*
X138467600Y-105258100D01*
X138565129Y-105258100D01*
X138574845Y-105259057D01*
X138595100Y-105263086D01*
X138694401Y-105243334D01*
X138757334Y-105201284D01*
X138757337Y-105201281D01*
X138778584Y-105187084D01*
X138781309Y-105183006D01*
X138781311Y-105183004D01*
X138790056Y-105169916D01*
X138796249Y-105162369D01*
X138817945Y-105140673D01*
X144438947Y-105140673D01*
X144448897Y-105364085D01*
X144449111Y-105366402D01*
X144504730Y-105764674D01*
X144505199Y-105767134D01*
X144600082Y-106157842D01*
X144600783Y-106160210D01*
X144734009Y-106539581D01*
X144734947Y-106541878D01*
X144905192Y-106906143D01*
X144906349Y-106908326D01*
X145111930Y-107253877D01*
X145113293Y-107255929D01*
X145352174Y-107579347D01*
X145353763Y-107581289D01*
X145623568Y-107879364D01*
X145625336Y-107881132D01*
X145923411Y-108150937D01*
X145925353Y-108152526D01*
X146248771Y-108391407D01*
X146250823Y-108392770D01*
X146596374Y-108598351D01*
X146598557Y-108599508D01*
X146962822Y-108769753D01*
X146965119Y-108770691D01*
X147344490Y-108903917D01*
X147346858Y-108904618D01*
X147737566Y-108999501D01*
X147740026Y-108999970D01*
X148138298Y-109055589D01*
X148140615Y-109055803D01*
X148364603Y-109065778D01*
X148371117Y-109063414D01*
X148374245Y-109056313D01*
X148627700Y-109056313D01*
X148630352Y-109062715D01*
X148638173Y-109065753D01*
X148861585Y-109055803D01*
X148863902Y-109055589D01*
X149262174Y-108999970D01*
X149264634Y-108999501D01*
X149655342Y-108904618D01*
X149657710Y-108903917D01*
X150037081Y-108770691D01*
X150039378Y-108769753D01*
X150403643Y-108599508D01*
X150405826Y-108598351D01*
X150751377Y-108392770D01*
X150753429Y-108391407D01*
X151076847Y-108152526D01*
X151078789Y-108150937D01*
X151376864Y-107881132D01*
X151378632Y-107879364D01*
X151648437Y-107581289D01*
X151650026Y-107579347D01*
X151888907Y-107255929D01*
X151890270Y-107253877D01*
X152095851Y-106908326D01*
X152097008Y-106906143D01*
X152267253Y-106541878D01*
X152268191Y-106539581D01*
X152401417Y-106160210D01*
X152402118Y-106157842D01*
X152497001Y-105767134D01*
X152497470Y-105764674D01*
X152553089Y-105366402D01*
X152553303Y-105364085D01*
X152563278Y-105140097D01*
X152560914Y-105133583D01*
X152553235Y-105130200D01*
X148637606Y-105130200D01*
X148630601Y-105133101D01*
X148627700Y-105140106D01*
X148627700Y-109056313D01*
X148374245Y-109056313D01*
X148374500Y-109055735D01*
X148374500Y-105140106D01*
X148371599Y-105133101D01*
X148364594Y-105130200D01*
X144448387Y-105130200D01*
X144441985Y-105132852D01*
X144438947Y-105140673D01*
X138817945Y-105140673D01*
X139091515Y-104867103D01*
X144438922Y-104867103D01*
X144441286Y-104873617D01*
X144448965Y-104877000D01*
X148364594Y-104877000D01*
X148371599Y-104874099D01*
X148374500Y-104867094D01*
X148627700Y-104867094D01*
X148630601Y-104874099D01*
X148637606Y-104877000D01*
X152553813Y-104877000D01*
X152560215Y-104874348D01*
X152563253Y-104866527D01*
X152553303Y-104643115D01*
X152553089Y-104640798D01*
X152497470Y-104242526D01*
X152497001Y-104240066D01*
X152402118Y-103849358D01*
X152401417Y-103846990D01*
X152268191Y-103467619D01*
X152267253Y-103465322D01*
X152097008Y-103101057D01*
X152095851Y-103098874D01*
X151890270Y-102753323D01*
X151888907Y-102751271D01*
X151650026Y-102427853D01*
X151648437Y-102425911D01*
X151378632Y-102127836D01*
X151376864Y-102126068D01*
X151078789Y-101856263D01*
X151076847Y-101854674D01*
X150753429Y-101615793D01*
X150751377Y-101614430D01*
X150405826Y-101408849D01*
X150403643Y-101407692D01*
X150039378Y-101237447D01*
X150037081Y-101236509D01*
X149657710Y-101103283D01*
X149655342Y-101102582D01*
X149264634Y-101007699D01*
X149262174Y-101007230D01*
X148863902Y-100951611D01*
X148861585Y-100951397D01*
X148637597Y-100941422D01*
X148631083Y-100943786D01*
X148627700Y-100951465D01*
X148627700Y-104867094D01*
X148374500Y-104867094D01*
X148374500Y-100950887D01*
X148371848Y-100944485D01*
X148364027Y-100941447D01*
X148140615Y-100951397D01*
X148138298Y-100951611D01*
X147740026Y-101007230D01*
X147737566Y-101007699D01*
X147346858Y-101102582D01*
X147344490Y-101103283D01*
X146965119Y-101236509D01*
X146962822Y-101237447D01*
X146598557Y-101407692D01*
X146596374Y-101408849D01*
X146250823Y-101614430D01*
X146248771Y-101615793D01*
X145925353Y-101854674D01*
X145923411Y-101856263D01*
X145625336Y-102126068D01*
X145623568Y-102127836D01*
X145353763Y-102425911D01*
X145352174Y-102427853D01*
X145113293Y-102751271D01*
X145111930Y-102753323D01*
X144906349Y-103098874D01*
X144905192Y-103101057D01*
X144734947Y-103465322D01*
X144734009Y-103467619D01*
X144600783Y-103846990D01*
X144600082Y-103849358D01*
X144505199Y-104240066D01*
X144504730Y-104242526D01*
X144449111Y-104640798D01*
X144448897Y-104643115D01*
X144438922Y-104867103D01*
X139091515Y-104867103D01*
X139206317Y-104752301D01*
X139241531Y-104737715D01*
X139256381Y-104739981D01*
X139275417Y-104745928D01*
X139278961Y-104745993D01*
X139416701Y-104748517D01*
X139420248Y-104748582D01*
X139423674Y-104747648D01*
X139556582Y-104711414D01*
X139556584Y-104711413D01*
X139560003Y-104710481D01*
X139605926Y-104682284D01*
X139680429Y-104636539D01*
X139680431Y-104636537D01*
X139683446Y-104634686D01*
X139685823Y-104632060D01*
X139778275Y-104529922D01*
X139778277Y-104529920D01*
X139780655Y-104527292D01*
X139843815Y-104396930D01*
X139867847Y-104254082D01*
X139868000Y-104241600D01*
X139847465Y-104098207D01*
X139787509Y-103966342D01*
X139692953Y-103856604D01*
X139571398Y-103777816D01*
X139432616Y-103736312D01*
X139429069Y-103736290D01*
X139429067Y-103736290D01*
X139362745Y-103735885D01*
X139287763Y-103735427D01*
X139148484Y-103775233D01*
X139025976Y-103852530D01*
X138930086Y-103961104D01*
X138928580Y-103964313D01*
X138928578Y-103964315D01*
X138893307Y-104039441D01*
X138868524Y-104092227D01*
X138867978Y-104095732D01*
X138867978Y-104095733D01*
X138864593Y-104117472D01*
X138846238Y-104235358D01*
X138853748Y-104292793D01*
X138861234Y-104350043D01*
X138851336Y-104386851D01*
X138847068Y-104391714D01*
X138504268Y-104734514D01*
X138469054Y-104749100D01*
X138467599Y-104749100D01*
X138432385Y-104734514D01*
X138417799Y-104699300D01*
X138417799Y-102448544D01*
X138408928Y-102403942D01*
X138375134Y-102353366D01*
X138324558Y-102319572D01*
X138319749Y-102318615D01*
X138319748Y-102318615D01*
X138282356Y-102311177D01*
X138282354Y-102311177D01*
X138279957Y-102310700D01*
X137376085Y-102310700D01*
X136471844Y-102310701D01*
X136469447Y-102311178D01*
X136469444Y-102311178D01*
X136453665Y-102314317D01*
X136427242Y-102319572D01*
X136376666Y-102353366D01*
X136342872Y-102403942D01*
X136341915Y-102408751D01*
X136341915Y-102408752D01*
X136338116Y-102427853D01*
X136334000Y-102448543D01*
X136062300Y-102448543D01*
X136153834Y-102017906D01*
X136154487Y-102015208D01*
X136226896Y-101748700D01*
X136273008Y-101578978D01*
X136273388Y-101577651D01*
X136307524Y-101464589D01*
X136403171Y-101147789D01*
X136420492Y-101090420D01*
X136420913Y-101089095D01*
X136557215Y-100679358D01*
X158150238Y-100679358D01*
X158169020Y-100822991D01*
X158198190Y-100889285D01*
X158222479Y-100944485D01*
X158227360Y-100955579D01*
X158320569Y-101066464D01*
X158441152Y-101146731D01*
X158579417Y-101189928D01*
X158582961Y-101189993D01*
X158720701Y-101192517D01*
X158724248Y-101192582D01*
X158733983Y-101189928D01*
X158762307Y-101182206D01*
X158800118Y-101187016D01*
X158810620Y-101195038D01*
X159357214Y-101741632D01*
X159371800Y-101776846D01*
X159371800Y-102260901D01*
X159357214Y-102296115D01*
X159322000Y-102310701D01*
X158722244Y-102310701D01*
X158719847Y-102311178D01*
X158719844Y-102311178D01*
X158704065Y-102314317D01*
X158677642Y-102319572D01*
X158627066Y-102353366D01*
X158593272Y-102403942D01*
X158592315Y-102408751D01*
X158592315Y-102408752D01*
X158588516Y-102427853D01*
X158584400Y-102448543D01*
X158584401Y-107558656D01*
X158593272Y-107603258D01*
X158627066Y-107653834D01*
X158677642Y-107687628D01*
X158682451Y-107688585D01*
X158682452Y-107688585D01*
X158719844Y-107696023D01*
X158719846Y-107696023D01*
X158722243Y-107696500D01*
X159626115Y-107696500D01*
X160530356Y-107696499D01*
X160532753Y-107696022D01*
X160532756Y-107696022D01*
X160548535Y-107692883D01*
X160574958Y-107687628D01*
X160625534Y-107653834D01*
X160659328Y-107603258D01*
X160663698Y-107581289D01*
X160667723Y-107561056D01*
X160667723Y-107561054D01*
X160668200Y-107558657D01*
X160668199Y-102448544D01*
X160659328Y-102403942D01*
X160625534Y-102353366D01*
X160574958Y-102319572D01*
X160570149Y-102318615D01*
X160570148Y-102318615D01*
X160532756Y-102311177D01*
X160532754Y-102311177D01*
X160530357Y-102310700D01*
X159930600Y-102310700D01*
X159895386Y-102296114D01*
X159880800Y-102260900D01*
X159880800Y-101680771D01*
X159881757Y-101671056D01*
X159884829Y-101655611D01*
X159885786Y-101650800D01*
X159866034Y-101551499D01*
X159823984Y-101488566D01*
X159823981Y-101488563D01*
X159809784Y-101467316D01*
X159805706Y-101464591D01*
X159805704Y-101464589D01*
X159792616Y-101455844D01*
X159785069Y-101449651D01*
X159170080Y-100834662D01*
X159155494Y-100799448D01*
X159156184Y-100791186D01*
X159171528Y-100699978D01*
X159171847Y-100698082D01*
X159172000Y-100685600D01*
X159151465Y-100542207D01*
X159091509Y-100410342D01*
X158996953Y-100300604D01*
X158875398Y-100221816D01*
X158736616Y-100180312D01*
X158733069Y-100180290D01*
X158733067Y-100180290D01*
X158666745Y-100179885D01*
X158591763Y-100179427D01*
X158452484Y-100219233D01*
X158329976Y-100296530D01*
X158234086Y-100405104D01*
X158232580Y-100408313D01*
X158232578Y-100408315D01*
X158174032Y-100533015D01*
X158172524Y-100536227D01*
X158150238Y-100679358D01*
X136557215Y-100679358D01*
X136563591Y-100660190D01*
X136564542Y-100657576D01*
X136730962Y-100237248D01*
X136731492Y-100235963D01*
X136863047Y-99929021D01*
X136931986Y-99768174D01*
X136932514Y-99766988D01*
X137122141Y-99356598D01*
X137123377Y-99354107D01*
X137335608Y-98954960D01*
X137336278Y-98953742D01*
X137587650Y-98511246D01*
X137588354Y-98510046D01*
X137822525Y-98123384D01*
X137824031Y-98121047D01*
X138079424Y-97748056D01*
X138080226Y-97746919D01*
X138379367Y-97335187D01*
X138380200Y-97334074D01*
X138656010Y-96975926D01*
X138657768Y-96973771D01*
X138837386Y-96765682D01*
X138953141Y-96631578D01*
X138954052Y-96630552D01*
X139297228Y-96254727D01*
X139298180Y-96253713D01*
X139612195Y-95928540D01*
X139614182Y-95926594D01*
X139815881Y-95739819D01*
X139945898Y-95619423D01*
X139946865Y-95618552D01*
X140329823Y-95283298D01*
X140330826Y-95282443D01*
X140679187Y-94994254D01*
X140681379Y-94992542D01*
X141045227Y-94724290D01*
X141046357Y-94723481D01*
X141464243Y-94433043D01*
X141465396Y-94432265D01*
X141740426Y-94252290D01*
X141843674Y-94184726D01*
X141846021Y-94183283D01*
X142085364Y-94045098D01*
X142237531Y-93957245D01*
X142238745Y-93956567D01*
X142686357Y-93714544D01*
X142687589Y-93713899D01*
X142994746Y-93558742D01*
X143091131Y-93510054D01*
X143093628Y-93508880D01*
X143507863Y-93327905D01*
X143509145Y-93327366D01*
X143598170Y-93291397D01*
X143981029Y-93136713D01*
X143982287Y-93136224D01*
X144251616Y-93036062D01*
X144406009Y-92978644D01*
X144408642Y-92977748D01*
X144671544Y-92896366D01*
X144840509Y-92844063D01*
X144841791Y-92843686D01*
X145331959Y-92706828D01*
X145333255Y-92706485D01*
X145734418Y-92606464D01*
X145771935Y-92597110D01*
X145774651Y-92596513D01*
X146218709Y-92511804D01*
X146220079Y-92511563D01*
X146722412Y-92430203D01*
X146723775Y-92430001D01*
X147171909Y-92370207D01*
X147174637Y-92369921D01*
X147625336Y-92335242D01*
X147626716Y-92335154D01*
X147690219Y-92332048D01*
X148135069Y-92310292D01*
X148136459Y-92310244D01*
X148391934Y-92304892D01*
X148588396Y-92300777D01*
X148591156Y-92300796D01*
G37*
G04 #@! TD.AperFunction*
G04 #@! TD*
M02*
